<?xml version="1.0" encoding="utf-8"?>
<!-- Generator: Adobe Illustrator 16.0.0, SVG Export Plug-In . SVG Version: 6.00 Build 0)  -->
<!DOCTYPE svg PUBLIC "-//W3C//DTD SVG 1.1//EN" "http://www.w3.org/Graphics/SVG/1.1/DTD/svg11.dtd">
<svg version="1.1" id="svg690" xmlns:svg="http://www.w3.org/2000/svg"
	 xmlns="http://www.w3.org/2000/svg" xmlns:xlink="http://www.w3.org/1999/xlink" x="0px" y="0px" width="36.523px"
	 height="49.854px" viewBox="0 0 36.523 49.854" enable-background="new 0 0 36.523 49.854" xml:space="preserve">
<g id="g700">
	<g id="g706" transform="translate(436,324.5)">
		
			<path id="path708" fill="none" stroke="#093E2E" stroke-width="1.5" stroke-linecap="round" stroke-linejoin="round" stroke-miterlimit="10" d="
			M-400.225-306.238c0-9.671-7.842-17.512-17.513-17.512c-9.672,0-17.513,7.841-17.513,17.512c0,3.726,1.164,7.178,3.146,10.016
			l14.365,20.824l14.365-20.824C-401.389-299.06-400.225-302.512-400.225-306.238z"/>
	</g>
	<g id="g710" transform="translate(161.2061,398.0806)">
		
			<path id="path712" fill="none" stroke="#093E2E" stroke-width="1.5" stroke-linecap="round" stroke-linejoin="round" stroke-miterlimit="10" d="
			M-152.167-386.976c-1.536,1.977-2.451,4.461-2.451,7.157c0,6.447,5.228,11.676,11.675,11.676c6.448,0,11.674-5.229,11.674-11.676
			s-5.226-11.675-11.674-11.675c-2.697,0-5.183,0.915-7.158,2.452"/>
	</g>
</g>
</svg>
