<?xml version="1.0" encoding="utf-8"?>
<!-- Generator: Adobe Illustrator 16.0.0, SVG Export Plug-In . SVG Version: 6.00 Build 0)  -->
<!DOCTYPE svg PUBLIC "-//W3C//DTD SVG 1.1//EN" "http://www.w3.org/Graphics/SVG/1.1/DTD/svg11.dtd">
<svg version="1.1" id="line" xmlns="http://www.w3.org/2000/svg" xmlns:xlink="http://www.w3.org/1999/xlink" x="0px" y="0px"
	 width="60.501px" height="60.344px" viewBox="419.5 418.498 60.501 60.344" enable-background="new 419.5 418.498 60.501 60.344"
	 xml:space="preserve">
<g>
	<path fill="#093E2E" d="M478.921,447.668c-0.597,0-1.081,0.483-1.081,1.08c-1.541,37.264-54.642,37.256-56.179,0
		c0.018-15.506,12.584-28.071,28.09-28.089c0.597,0,1.08-0.484,1.08-1.08c0-0.598-0.483-1.081-1.08-1.081
		c-16.699,0.019-30.231,13.552-30.251,30.25c1.662,40.131,58.846,40.12,60.501,0C480.001,448.152,479.517,447.668,478.921,447.668z"
		/>
	<path fill="#093E2E" d="M450.831,426.264v-3.646c-0.012-0.597-0.505-1.071-1.102-1.06c-0.58,0.012-1.048,0.479-1.06,1.06v3.646
		c0.012,0.597,0.505,1.07,1.102,1.059C450.351,427.312,450.819,426.844,450.831,426.264z"/>
	<path fill="#093E2E" d="M437.948,429.385c0.601-0.007,1.082-0.499,1.075-1.099c-0.002-0.183-0.051-0.362-0.141-0.521l-0.701-1.216
		c-0.309-0.511-0.973-0.675-1.483-0.366c-0.497,0.3-0.669,0.938-0.388,1.447C436.682,428.184,437.101,429.465,437.948,429.385z"/>
	<path fill="#093E2E" d="M429.847,436.01l-1.216-0.702c-0.522-0.288-1.18-0.099-1.468,0.424c-0.281,0.509-0.109,1.148,0.388,1.448
		c0.364,0.166,1.336,0.896,1.755,0.846c0.6-0.012,1.076-0.508,1.064-1.108C430.363,436.545,430.166,436.202,429.847,436.01z"/>
	<path fill="#093E2E" d="M428.345,448.748c0-0.597-0.483-1.08-1.08-1.08h-3.646c-0.597,0-1.08,0.483-1.08,1.08
		s0.483,1.081,1.08,1.081h3.646C427.862,449.829,428.345,449.345,428.345,448.748z"/>
	<path fill="#093E2E" d="M428.093,462.334c0.414,0.054,1.396-0.681,1.755-0.847c0.512-0.31,0.676-0.974,0.366-1.484
		c-0.3-0.497-0.939-0.668-1.447-0.388l-1.216,0.703c-0.514,0.311-0.677,0.979-0.366,1.492
		C427.378,462.129,427.72,462.327,428.093,462.334z"/>
	<path fill="#093E2E" d="M437.011,468.652l-0.702,1.216c-0.288,0.522-0.098,1.18,0.425,1.469c0.508,0.28,1.147,0.108,1.447-0.389
		l0.701-1.215c0.289-0.523,0.099-1.181-0.424-1.469C437.95,467.984,437.311,468.155,437.011,468.652z"/>
	<path fill="#093E2E" d="M448.67,471.234v3.646c0.012,0.597,0.505,1.07,1.102,1.06c0.58-0.012,1.049-0.479,1.06-1.06v-3.646
		c-0.012-0.597-0.505-1.071-1.102-1.06C449.149,470.186,448.681,470.654,448.67,471.234z"/>
	<path fill="#093E2E" d="M461.013,468.256c-0.517,0.299-0.693,0.959-0.396,1.477l0.701,1.215c0.298,0.518,0.959,0.695,1.476,0.398
		c0.518-0.298,0.695-0.959,0.398-1.476c-0.001-0.001-0.002-0.002-0.002-0.003l-0.701-1.216c-0.297-0.517-0.957-0.694-1.473-0.397
		C461.015,468.255,461.014,468.256,461.013,468.256L461.013,468.256z"/>
	<path fill="#093E2E" d="M470.735,459.615c-0.523-0.288-1.181-0.098-1.469,0.425c-0.28,0.508-0.109,1.146,0.387,1.447
		c0.365,0.167,1.336,0.898,1.755,0.847c0.601-0.012,1.077-0.508,1.065-1.108c-0.007-0.372-0.205-0.715-0.523-0.907L470.735,459.615z
		"/>
	<path fill="#093E2E" d="M476.962,448.748c0-0.597-0.483-1.08-1.08-1.08h-3.646c-0.597,0-1.08,0.483-1.08,1.08
		s0.483,1.081,1.08,1.081h3.646C476.478,449.829,476.962,449.345,476.962,448.748z"/>
	<path fill="#093E2E" d="M435.623,438.126c-0.507-0.32-1.177-0.17-1.498,0.336c-0.236,0.373-0.223,0.853,0.034,1.212l14.585,19.445
		c0.363,0.478,1.046,0.57,1.523,0.206c0.059-0.045,0.112-0.095,0.161-0.151l29.17-34.03c0.38-0.461,0.314-1.144-0.147-1.523
		c-0.396-0.326-0.965-0.33-1.364-0.01l-28.551,23.792L435.623,438.126z M450.3,449.578l19.279-16.065l-19.914,23.233l-9.993-13.323
		l9.337,6.225C449.407,449.912,449.931,449.884,450.3,449.578L450.3,449.578z"/>
</g>
</svg>
