<?xml version="1.0" encoding="utf-8"?>
<!-- Generator: Adobe Illustrator 16.0.0, SVG Export Plug-In . SVG Version: 6.00 Build 0)  -->
<!DOCTYPE svg PUBLIC "-//W3C//DTD SVG 1.1//EN" "http://www.w3.org/Graphics/SVG/1.1/DTD/svg11.dtd">
<svg version="1.1" id="Capa_1" xmlns="http://www.w3.org/2000/svg" xmlns:xlink="http://www.w3.org/1999/xlink" x="0px" y="0px"
	 width="60.328px" height="61.174px" viewBox="448.135 450.826 60.328 61.174"
	 enable-background="new 448.135 450.826 60.328 61.174" xml:space="preserve">
<g>
	<path fill="#093E2E" d="M476.465,460.61c-0.514,0-0.93,0.417-0.93,0.93c0,0.514,0.416,0.93,0.93,0.93h4.188
		c0.899,0,1.631-0.73,1.631-1.63v-3.222c0-0.899-0.731-1.631-1.631-1.631h-19.231c-0.899,0-1.631,0.731-1.631,1.631v3.222
		c0,0.899,0.731,1.631,1.631,1.631h10.674c0.513,0,0.93-0.417,0.93-0.93c0-0.514-0.417-0.931-0.93-0.931H461.65v-2.764h18.772v2.764
		H476.465L476.465,460.61z"/>
	<path fill="#093E2E" d="M455.635,467.243c0,0.514,0.416,0.93,0.93,0.93h29.142c0.514,0,0.93-0.416,0.93-0.93s-0.416-0.93-0.93-0.93
		h-29.142C456.051,466.314,455.635,466.73,455.635,467.243z"/>
	<path fill="#093E2E" d="M456.564,474.024h29.142c0.514,0,0.93-0.416,0.93-0.93s-0.416-0.93-0.93-0.93h-29.142
		c-0.514,0-0.93,0.416-0.93,0.93S456.051,474.024,456.564,474.024z"/>
	<path fill="#093E2E" d="M479.958,478.945c0-0.514-0.416-0.93-0.93-0.93h-22.464c-0.514,0-0.93,0.416-0.93,0.93
		s0.416,0.93,0.93,0.93h22.464C479.541,479.874,479.958,479.458,479.958,478.945L479.958,478.945z"/>
	<path fill="#093E2E" d="M468.178,485.725c0.514,0,0.93-0.417,0.93-0.93c0-0.514-0.416-0.93-0.93-0.93h-11.614
		c-0.514,0-0.93,0.416-0.93,0.93s0.416,0.93,0.93,0.93H468.178z"/>
	<path fill="#093E2E" d="M455.443,503.805c0.494,0.142,1.009-0.146,1.149-0.64c0.006-0.021,0.615-2.066,2.99-2.066
		c1.172,0,1.729,0.461,2.498,1.099c0.885,0.732,1.986,1.644,4.114,1.644c2.652,0,4.079-2.805,4.139-2.925
		c0.228-0.458,0.041-1.014-0.416-1.243c-0.458-0.229-1.016-0.045-1.248,0.412c-0.01,0.019-0.979,1.896-2.475,1.896
		c-1.458,0-2.107-0.537-2.928-1.217c-0.864-0.715-1.843-1.525-3.685-1.525c-3.011,0-4.442,2.234-4.779,3.416
		C454.663,503.15,454.949,503.664,455.443,503.805z"/>
	<path fill="#093E2E" d="M508.397,460.374c-0.092-0.23-0.271-0.413-0.499-0.51l-2.16-0.92c0.181-0.458-0.047-1.002-0.495-1.195
		l-0.431-0.187l0.698-1.618c0.79-1.832-0.083-4.028-1.913-4.818c-1.829-0.79-4.027,0.083-4.817,1.911l-0.721,1.668
		c-0.823-0.145-1.657,0.309-1.987,1.074l-1.938,4.485v-4.76c0-2.58-2.099-4.679-4.679-4.679h-36.644
		c-2.579,0-4.677,2.098-4.677,4.677v51.82c0,2.578,2.098,4.677,4.677,4.677h36.646c2.579,0,4.677-2.099,4.677-4.677v-13.019
		c0-0.514-0.416-0.93-0.93-0.93s-0.93,0.416-0.93,0.93v13.019c0,1.553-1.264,2.817-2.817,2.817h-36.646
		c-1.554,0-2.817-1.265-2.817-2.817v-51.82c0-1.554,1.264-2.817,2.817-2.817h36.644c1.555,0,2.819,1.265,2.819,2.819v9.066
		l-14.252,33.009c-0.05,0.115-0.078,0.244-0.077,0.369l0.011,7.833c0.001,1.747,2.162,2.688,3.441,1.485l5.708-5.362
		c0.079-0.073,0.145-0.165,0.192-0.261c0.006-0.01,0.011-0.02,0.016-0.03c0.002-0.006,0.006-0.012,0.009-0.019l17.679-40.943
		l1.31,0.558l-6.916,16.082c-0.203,0.472,0.015,1.019,0.487,1.222c0.119,0.052,0.244,0.075,0.366,0.075
		c0.36,0,0.703-0.21,0.854-0.563l7.285-16.939C508.486,460.86,508.489,460.603,508.397,460.374L508.397,460.374z M502.251,452.69
		c1.233,0.063,2.037,1.395,1.553,2.518l-0.699,1.618l-3.316-1.432l0.699-1.618C500.787,453.082,501.494,452.648,502.251,452.69z
		 M497.766,456.547l5.886,2.541l-7.479,17.319l-5.887-2.542L497.766,456.547z M485.984,500.005l-5.886-2.541l9.451-21.892
		l5.887,2.542L485.984,500.005z M480.125,505.913c-0.114,0.107-0.309,0.024-0.309-0.133l-0.009-6.417l4.993,2.156L480.125,505.913z"
		/>
</g>
</svg>
