<?xml version="1.0" encoding="utf-8"?>
<!-- Generator: Adobe Illustrator 16.0.0, SVG Export Plug-In . SVG Version: 6.00 Build 0)  -->
<!DOCTYPE svg PUBLIC "-//W3C//DTD SVG 1.1//EN" "http://www.w3.org/Graphics/SVG/1.1/DTD/svg11.dtd">
<svg version="1.1" id="Line" xmlns="http://www.w3.org/2000/svg" xmlns:xlink="http://www.w3.org/1999/xlink" x="0px" y="0px"
	 width="46.934px" height="35.2px" viewBox="0 0 46.934 35.2" enable-background="new 0 0 46.934 35.2" xml:space="preserve">
<path fill="#093E2E" d="M45.703,1.221C44.912,0.446,43.852,0.006,42.744,0H4.191C1.878,0.002,0.003,1.877,0.001,4.19v26.818
	c0.006,2.313,1.878,4.186,4.19,4.191h38.553c2.313-0.004,4.188-1.879,4.189-4.191V4.192C46.932,3.079,46.489,2.01,45.703,1.221z
	 M42.744,1.676c0.357,0.002,0.711,0.08,1.037,0.23l-15.674,15.09c-2.586,2.506-6.695,2.506-9.281,0L3.153,1.907
	c0.325-0.15,0.68-0.23,1.038-0.23H42.744z M4.191,33.526c-0.358-0.002-0.713-0.08-1.038-0.23l13.26-12.77
	c0.328-0.326,0.327-0.857,0-1.186c-0.318-0.318-0.831-0.328-1.162-0.021L1.95,32.125c-0.178-0.344-0.271-0.727-0.273-1.115V4.192
	C1.679,3.801,1.774,3.42,1.95,3.075l15.716,15.131c3.233,3.133,8.372,3.133,11.604,0L44.985,3.075
	c0.178,0.346,0.271,0.729,0.273,1.117V31.01c-0.004,0.389-0.098,0.771-0.273,1.115L31.684,19.317
	c-0.334-0.32-0.865-0.309-1.186,0.025c-0.32,0.332-0.309,0.861,0.023,1.184l13.26,12.768c-0.326,0.15-0.68,0.23-1.039,0.23H4.191
	V33.526z"/>
</svg>
