<?xml version="1.0" encoding="utf-8"?>
<!-- Generator: Adobe Illustrator 16.0.0, SVG Export Plug-In . SVG Version: 6.00 Build 0)  -->
<!DOCTYPE svg PUBLIC "-//W3C//DTD SVG 1.1//EN" "http://www.w3.org/Graphics/SVG/1.1/DTD/svg11.dtd">
<svg version="1.1" id="svg9" xmlns:svg="http://www.w3.org/2000/svg"
	 xmlns="http://www.w3.org/2000/svg" xmlns:xlink="http://www.w3.org/1999/xlink" x="0px" y="0px" width="47.053px"
	 height="47.053px" viewBox="14.55 14.506 47.053 47.053" enable-background="new 14.55 14.506 47.053 47.053" xml:space="preserve"
	>
<g id="g19">
	<g id="g25" transform="translate(364,407)">
		<path id="path27" fill="#00FF5A" d="M-315.673-383.822c0.6,0,1.64,0.082,2.622,0.181c0.989,0.101,1.739,0.936,1.739,1.928v1.961
			c0,1.071-0.868,1.938-1.939,1.938h-2.423c-1.606,0-2.908,1.303-2.908,2.909v28.594h-6.01v-28.577c0-2.362,0.96-4.604,2.701-6.318
			C-320.2-382.869-317.934-383.822-315.673-383.822"/>
	</g>
	<g id="g29" transform="translate(380.2896,186)">
		<path id="path31" fill="#00FF5A" d="M-330.385-141.402h-14.857c-1.07,0-1.938-0.866-1.938-1.938v-2.133
			c0-1.07,0.868-1.938,1.938-1.938h15.114c1.163,0,2.064,1.017,1.925,2.171l-0.257,2.132
			C-328.576-142.133-329.404-141.402-330.385-141.402"/>
	</g>
	<g id="g33" transform="translate(492,80)">
		
			<path id="path35" fill="none" stroke="#00FF5A" stroke-width="2" stroke-linecap="round" stroke-linejoin="round" stroke-miterlimit="10" d="
			M-431.399-25.168c0,3.161-2.563,5.727-5.727,5.727h-33.597c-3.163,0-5.728-2.564-5.728-5.727v-33.598
			c0-3.163,2.565-5.728,5.728-5.728h33.597c3.163,0,5.729,2.564,5.729,5.728v24.054"/>
	</g>
</g>
</svg>
