<?xml version="1.0" encoding="utf-8"?>
<!-- Generator: Adobe Illustrator 16.0.0, SVG Export Plug-In . SVG Version: 6.00 Build 0)  -->
<!DOCTYPE svg PUBLIC "-//W3C//DTD SVG 1.1//EN" "http://www.w3.org/Graphics/SVG/1.1/DTD/svg11.dtd">
<svg version="1.1" id="Vrstva_1" xmlns="http://www.w3.org/2000/svg" xmlns:xlink="http://www.w3.org/1999/xlink" x="0px" y="0px"
	 width="60.021px" height="60.021px" viewBox="0 0 60.021 60.021" enable-background="new 0 0 60.021 60.021" xml:space="preserve">
<g>
	<g>
		<g>
			<path fill="#00FF5A" d="M40.56,37.397c-0.646,0-1.172,0.524-1.172,1.172v8.089c0,3.231-2.631,5.862-5.861,5.862H20.869
				c-0.647,0-1.172,0.522-1.173,1.172l-0.001,2.331l-2.798-2.799c-0.181-0.417-0.596-0.704-1.075-0.704H8.206
				c-3.232,0-5.861-2.631-5.861-5.862V28.604c0-3.231,2.629-5.861,5.861-5.861h11.84c0.646,0,1.173-0.524,1.173-1.172
				c0-0.648-0.525-1.173-1.173-1.173H8.206C3.682,20.398,0,24.079,0,28.604v18.054c0,4.525,3.682,8.206,8.206,8.206h7.018
				l4.814,4.815c0.224,0.224,0.523,0.344,0.83,0.344c0.15,0,0.303-0.03,0.446-0.09c0.439-0.183,0.726-0.607,0.727-1.082
				l-0.001-3.987h11.484c4.525,0,8.207-3.681,8.207-8.206v-8.089C41.732,37.921,41.208,37.397,40.56,37.397z"/>
		</g>
	</g>
	<g>
		<g>
			<path fill="#00FF5A" d="M42.982-0.001h-2.967c-9.396,0-17.039,7.645-17.039,17.039c0,9.396,7.645,17.04,17.039,17.04h2.967
				c1.467,0,2.918-0.187,4.324-0.555l4.383,4.38c0.227,0.225,0.523,0.344,0.828,0.344c0.152,0,0.305-0.029,0.449-0.09
				c0.438-0.182,0.725-0.609,0.725-1.082v-6.784c1.855-1.502,3.398-3.399,4.479-5.521c1.229-2.409,1.854-5.01,1.854-7.731
				C60.021,7.644,52.378-0.001,42.982-0.001z M51.814,28.784c-0.295,0.222-0.469,0.568-0.469,0.938v4.522l-2.869-2.867
				c-0.223-0.223-0.52-0.343-0.828-0.343c-0.113,0-0.23,0.018-0.344,0.053c-1.395,0.429-2.85,0.646-4.322,0.646h-2.967
				c-8.103,0-14.694-6.591-14.694-14.694c0-8.103,6.593-14.694,14.694-14.694h2.967c8.104,0,14.695,6.592,14.695,14.693
				C57.677,21.697,55.54,25.978,51.814,28.784z"/>
		</g>
	</g>
	<g>
		<g>
			<path fill="#00FF5A" d="M46.777,12.827c-0.168-2.455-2.146-4.432-4.602-4.602C40.784,8.13,39.456,8.6,38.441,9.548
				c-1.002,0.937-1.578,2.259-1.578,3.629c0,0.646,0.525,1.172,1.176,1.172c0.645,0,1.172-0.524,1.172-1.172
				c0-0.734,0.295-1.413,0.832-1.914c0.535-0.501,1.236-0.749,1.973-0.697c1.295,0.088,2.336,1.131,2.426,2.423
				c0.088,1.306-0.768,2.459-2.039,2.743c-1.027,0.23-1.746,1.125-1.746,2.175v2.816c0,0.646,0.523,1.173,1.174,1.173
				c0.646,0,1.172-0.525,1.172-1.173v-2.724C45.361,17.43,46.945,15.269,46.777,12.827z"/>
		</g>
	</g>
	<g>
		<g>
			<path fill="#00FF5A" d="M42.656,24.531c-0.219-0.218-0.52-0.344-0.826-0.344c-0.311,0-0.611,0.126-0.83,0.344
				s-0.344,0.521-0.344,0.829c0,0.309,0.125,0.611,0.344,0.83c0.219,0.218,0.52,0.342,0.83,0.342c0.307,0,0.607-0.125,0.826-0.342
				c0.219-0.219,0.346-0.521,0.346-0.83C42.999,25.053,42.874,24.749,42.656,24.531z"/>
		</g>
	</g>
	<g>
		<g>
			<path fill="#00FF5A" d="M32.238,36.341H7.501c-0.647,0-1.172,0.523-1.172,1.174c0,0.646,0.524,1.172,1.172,1.172h24.736
				c0.646,0,1.174-0.525,1.174-1.172C33.411,36.865,32.884,36.341,32.238,36.341z"/>
		</g>
	</g>
	<g>
		<g>
			<path fill="#00FF5A" d="M33.066,43.249c-0.219-0.217-0.52-0.344-0.828-0.344c-0.308,0-0.61,0.127-0.829,0.344
				c-0.218,0.22-0.343,0.521-0.343,0.83c0,0.31,0.125,0.609,0.343,0.828c0.219,0.219,0.521,0.344,0.829,0.344
				c0.311,0,0.609-0.125,0.828-0.344c0.221-0.219,0.346-0.52,0.346-0.828C33.411,43.772,33.286,43.468,33.066,43.249z"/>
		</g>
	</g>
	<g>
		<g>
			<path fill="#00FF5A" d="M27.625,42.906H7.501c-0.647,0-1.172,0.525-1.172,1.174c0,0.646,0.524,1.172,1.172,1.172h20.125
				c0.647,0,1.172-0.524,1.172-1.172C28.798,43.431,28.273,42.906,27.625,42.906z"/>
		</g>
	</g>
	<g>
		<g>
			<path fill="#00FF5A" d="M24.617,29.776H7.501c-0.647,0-1.172,0.525-1.172,1.174c0,0.646,0.524,1.172,1.172,1.172h17.116
				c0.646,0,1.172-0.524,1.172-1.172C25.789,30.301,25.265,29.776,24.617,29.776z"/>
		</g>
	</g>
</g>
</svg>
