<?xml version="1.0" encoding="utf-8"?>
<!-- Generator: Adobe Illustrator 16.0.0, SVG Export Plug-In . SVG Version: 6.00 Build 0)  -->
<!DOCTYPE svg PUBLIC "-//W3C//DTD SVG 1.1//EN" "http://www.w3.org/Graphics/SVG/1.1/DTD/svg11.dtd">
<svg version="1.1" id="svg9" xmlns:svg="http://www.w3.org/2000/svg"
	 xmlns="http://www.w3.org/2000/svg" xmlns:xlink="http://www.w3.org/1999/xlink" x="0px" y="0px" width="47.103px"
	 height="47.105px" viewBox="16.435 17.401 47.103 47.105" enable-background="new 16.435 17.401 47.103 47.105"
	 xml:space="preserve">
<g>
	<g id="g187" transform="translate(477.1406,96)">
		
			<path id="path189" fill="none" stroke="#00FF5A" stroke-width="2" stroke-linecap="round" stroke-linejoin="round" stroke-miterlimit="10" d="
			M-416.023-39.757c-0.714,1.648-1.76,3.088-3.17,4.236c-2.063,1.683-4.557,2.566-7.249,2.73c-3.569,0.217-7.142,0.304-10.713,0.295
			c-3.571,0.009-7.144-0.078-10.713-0.295c-2.691-0.164-5.186-1.048-7.249-2.73c-1.958-1.597-3.216-3.753-3.855-6.254
			c-0.608-2.385-0.646-4.812-0.679-7.239c-0.027-2.011-0.05-4.022-0.055-6.033c0.005-2.011,0.028-4.022,0.055-6.034
			c0.033-2.426,0.071-4.854,0.679-7.238c0.639-2.5,1.897-4.657,3.855-6.254c2.063-1.683,4.558-2.567,7.249-2.73
			c3.57-0.218,7.142-0.303,10.713-0.295c3.571-0.008,7.144,0.077,10.713,0.295c2.692,0.164,5.187,1.048,7.249,2.73
			c1.959,1.597,3.217,3.753,3.855,6.254c0.608,2.385,0.646,4.813,0.679,7.238c0.027,2.012,0.05,4.023,0.056,6.034
			c-0.006,2.011-0.028,4.022-0.056,6.033"/>
	</g>
	<g id="g191" transform="translate(360,256)">
		
			<path id="path193" fill="none" stroke="#00FF5A" stroke-width="2" stroke-linecap="round" stroke-linejoin="round" stroke-miterlimit="10" d="
			M-310.075-215.047c0,5.542-4.492,10.033-10.034,10.033s-10.033-4.491-10.033-10.033c0-5.541,4.491-10.034,10.033-10.034
			S-310.075-220.588-310.075-215.047z"/>
	</g>
	<g id="g195" transform="translate(424,391)">
		<path id="path197" fill="#00FF5A" d="M-367.96-362.948c0,1.583-1.282,2.867-2.866,2.867c-1.583,0-2.867-1.284-2.867-2.867
			c0-1.583,1.284-2.867,2.867-2.867C-369.242-365.815-367.96-364.531-367.96-362.948"/>
	</g>
</g>
</svg>
