<?xml version="1.0" encoding="utf-8"?>
<!-- Generator: Adobe Illustrator 16.0.0, SVG Export Plug-In . SVG Version: 6.00 Build 0)  -->
<!DOCTYPE svg PUBLIC "-//W3C//DTD SVG 1.1//EN" "http://www.w3.org/Graphics/SVG/1.1/DTD/svg11.dtd">
<svg version="1.1" id="Vrstva_1" xmlns="http://www.w3.org/2000/svg" xmlns:xlink="http://www.w3.org/1999/xlink" x="0px" y="0px"
	 width="61.4px" height="60.074px" viewBox="441.348 263.162 61.4 60.074" enable-background="new 441.348 263.162 61.4 60.074"
	 xml:space="preserve">
<path fill="#093E2E" d="M478.906,265.144H443.51c-0.101,0-0.181,0.081-0.181,0.181v55.752c0,0.099,0.08,0.181,0.181,0.181h42.479
	c0.1,0,0.181-0.082,0.181-0.181v-0.218c0-0.546,0.443-0.988,0.989-0.988c0.547,0,0.99,0.442,0.99,0.988v0.218
	c0,1.19-0.97,2.16-2.16,2.16H443.51c-1.191,0-2.162-0.97-2.162-2.16v-55.752c0-1.189,0.971-2.162,2.162-2.162h35.902
	c0.324,0,0.623,0.067,0.896,0.192c0.229,0.104,0.44,0.25,0.633,0.441l6.575,6.576c0.191,0.191,0.338,0.404,0.442,0.633l0,0
	c0.125,0.273,0.19,0.572,0.19,0.895v12.334c0,0.546-0.443,0.992-0.99,0.992c-0.546,0-0.989-0.446-0.989-0.992v-11.828h-5.687
	c-0.867,0-1.577-0.708-1.577-1.575V265.144z M484.77,270.426l-3.882-3.881v3.881H484.77z M460.71,312.251
	c-0.548,0-0.992-0.443-0.992-0.989s0.444-0.99,0.992-0.99h10.352c0.547,0,0.991,0.444,0.991,0.99s-0.444,0.989-0.991,0.989H460.71z
	 M460.71,307.41c-0.548,0-0.992-0.443-0.992-0.99c0-0.546,0.444-0.989,0.992-0.989h8.551c0.546,0,0.99,0.443,0.99,0.989
	c0,0.547-0.444,0.99-0.99,0.99H460.71z M460.71,297.728c-0.548,0-0.992-0.443-0.992-0.989c0-0.548,0.444-0.991,0.992-0.991h9.085
	c0.546,0,0.988,0.443,0.988,0.991c0,0.546-0.442,0.989-0.988,0.989H460.71z M460.71,292.887c-0.548,0-0.992-0.443-0.992-0.989
	c0-0.548,0.444-0.991,0.992-0.991h11.568c0.548,0,0.991,0.443,0.991,0.991c0,0.546-0.443,0.989-0.991,0.989H460.71z M460.71,278.363
	c-0.548,0-0.992-0.443-0.992-0.99s0.444-0.99,0.992-0.99h19.065c0.545,0,0.99,0.443,0.99,0.99s-0.445,0.99-0.99,0.99H460.71z
	 M460.71,283.205c-0.548,0-0.992-0.444-0.992-0.991s0.444-0.99,0.992-0.99h19.065c0.545,0,0.99,0.443,0.99,0.99
	s-0.445,0.991-0.99,0.991H460.71z M447.031,303.396h8.912c0.547,0,0.99,0.442,0.99,0.99v8.912c0,0.546-0.443,0.989-0.99,0.989
	h-8.912c-0.546,0-0.989-0.443-0.989-0.989v-8.912C446.042,303.838,446.485,303.396,447.031,303.396z M448.021,305.374v6.934h6.933
	v-6.934H448.021z M449.004,309.579c-0.386-0.388-0.386-1.015,0-1.402c0.386-0.387,1.014-0.387,1.399,0l0.504,0.504l2.082-1.779
	c0.416-0.355,1.042-0.306,1.396,0.109c0.355,0.416,0.307,1.042-0.108,1.396l-2.78,2.373c-0.394,0.336-0.978,0.313-1.343-0.052
	L449.004,309.579z M447.031,274.347h8.912c0.547,0,0.99,0.443,0.99,0.99v8.913c0,0.547-0.443,0.991-0.99,0.991h-8.912
	c-0.546,0-0.989-0.444-0.989-0.991v-8.913C446.042,274.79,446.485,274.347,447.031,274.347L447.031,274.347z M448.021,276.327v6.933
	h6.933v-6.933H448.021z M449.004,280.707c-0.386-0.386-0.386-1.014,0-1.4c0.386-0.386,1.014-0.386,1.399,0l0.504,0.504l2.082-1.78
	c0.416-0.354,1.042-0.307,1.396,0.111c0.355,0.415,0.307,1.041-0.108,1.396l-2.78,2.373c-0.394,0.335-0.978,0.313-1.343-0.053
	L449.004,280.707z M447.031,288.87h8.912c0.547,0,0.99,0.443,0.99,0.992v8.912c0,0.546-0.443,0.989-0.99,0.989h-8.912
	c-0.546,0-0.989-0.443-0.989-0.989v-8.912C446.042,289.313,446.485,288.87,447.031,288.87z M448.021,290.851v6.933h6.933v-6.933
	H448.021z M449.004,295.055c-0.386-0.387-0.386-1.014,0-1.402c0.386-0.386,1.014-0.386,1.399,0l0.504,0.505l2.082-1.78
	c0.416-0.355,1.042-0.305,1.396,0.11c0.355,0.415,0.307,1.042-0.108,1.396l-2.78,2.373c-0.394,0.336-0.978,0.313-1.343-0.053
	L449.004,295.055z M487.162,318.136c-8.587,0-15.591-7-15.591-15.588c0-8.585,7.004-15.592,15.591-15.592
	s15.586,7.007,15.586,15.592C502.748,311.136,495.749,318.136,487.162,318.136z M487.162,316.155
	c7.496,0,13.606-6.111,13.606-13.607c0-7.494-6.11-13.609-13.606-13.609c-7.497,0-13.61,6.115-13.61,13.609
	C473.552,310.044,479.665,316.155,487.162,316.155z M485.241,302.429l6.396-6.461l0.002-0.003c1.225-1.231,3.226-1.237,4.46-0.012
	c1.23,1.226,1.238,3.219,0.012,4.456v0.002c-2.879,2.906-5.738,5.829-8.631,8.723c-1.231,1.231-3.231,1.231-4.464,0l-4.796-4.799
	c-1.231-1.232-1.233-3.227-0.001-4.463l0.001-0.002c1.231-1.231,3.232-1.231,4.464,0L485.241,302.429z M484.545,304.534
	l-3.264-3.263c-0.457-0.458-1.202-0.458-1.66,0c-0.457,0.46-0.459,1.203-0.001,1.661l4.797,4.802c0.458,0.457,1.203,0.457,1.661,0
	c2.893-2.893,5.747-5.813,8.625-8.718c0.457-0.461,0.456-1.203-0.002-1.659c-0.459-0.457-1.201-0.453-1.658,0.005l-7.093,7.169
	c-0.188,0.186-0.44,0.292-0.702,0.293C484.983,304.824,484.73,304.721,484.545,304.534z"/>
</svg>
