<?xml version="1.0" encoding="utf-8"?>
<!-- Generator: Adobe Illustrator 16.0.0, SVG Export Plug-In . SVG Version: 6.00 Build 0)  -->
<!DOCTYPE svg PUBLIC "-//W3C//DTD SVG 1.1//EN" "http://www.w3.org/Graphics/SVG/1.1/DTD/svg11.dtd">
<svg version="1.1" id="Vrstva_1" xmlns="http://www.w3.org/2000/svg" xmlns:xlink="http://www.w3.org/1999/xlink" x="0px" y="0px"
	 width="63.055px" height="60.049px" viewBox="0 0 63.055 60.049" enable-background="new 0 0 63.055 60.049" xml:space="preserve">
<g>
	<g id="mail_1_">
		<path fill="#00FF5A" d="M62.002,50.585c-0.58,0-1.051-0.473-1.051-1.054V11.634c0-0.581,0.471-1.054,1.051-1.054
			s1.051,0.473,1.051,1.054v37.897C63.053,50.112,62.583,50.585,62.002,50.585z"/>
		<path fill="#00FF5A" d="M62.002,54.795H43.051c-0.58,0-1.051-0.472-1.051-1.052c0-0.581,0.471-1.053,1.051-1.053h17.9v-9.475
			c0-0.583,0.471-1.054,1.051-1.054s1.051,0.471,1.051,1.054v10.526C63.053,54.323,62.583,54.795,62.002,54.795z"/>
		<path fill="#00FF5A" d="M62.002,52.69c-0.236,0-0.472-0.076-0.664-0.235L44.495,38.771c-0.449-0.367-0.521-1.028-0.152-1.481
			c0.369-0.45,1.029-0.521,1.479-0.151l16.845,13.687c0.451,0.368,0.52,1.026,0.151,1.479C62.612,52.558,62.309,52.69,62.002,52.69z
			"/>
		<path fill="#00FF5A" d="M35.683,39.589c-1.28,0-2.563-0.462-3.563-1.38L17.336,24.602c-0.427-0.397-0.456-1.062-0.063-1.489
			c0.397-0.423,1.059-0.45,1.491-0.062l14.782,13.608c1.192,1.104,3.077,1.104,4.273,0l23.129-21.278v-2.695H20.946
			c-0.581,0-1.055-0.471-1.055-1.052c0-0.581,0.474-1.054,1.055-1.054h41.057c0.58,0,1.051,0.473,1.051,1.054v4.21
			c0,0.295-0.121,0.576-0.338,0.776L39.249,38.209C38.251,39.129,36.967,39.589,35.683,39.589z"/>
	</g>
	<g>
		<path fill="#00FF5A" d="M29.477,60.049c-1.681,0-3.281-0.364-4.749-1.084C6.241,49.899-3.462,29.55,1.13,9.479
			c0.743-3.231,3.063-6.063,6.22-7.572l3.116-1.492C11.041,0.139,11.65,0,12.28,0c2.162,0,3.962,1.621,4.189,3.77l1.345,12.671
			c0.161,1.528-0.793,2.942-2.269,3.368l-3.442,0.987c-1.489,0.428-2.708,1.483-3.344,2.897c-0.637,1.414-0.622,3.027,0.043,4.429
			l6.271,13.146c0.883,1.85,2.709,3,4.765,3c1.078,0,2.116-0.328,3.003-0.951l2.938-2.053c1.22-0.857,2.987-0.701,4.046,0.359
			l8.994,9.016c0.965,0.967,1.399,2.346,1.172,3.692c-0.232,1.345-1.109,2.501-2.344,3.084l-3.119,1.481
			C32.941,59.653,31.193,60.049,29.477,60.049L29.477,60.049z M12.282,2.107c-0.31,0-0.615,0.069-0.907,0.209L8.26,3.807
			C5.681,5.039,3.781,7.336,3.182,9.95C-1.193,29.063,8.05,48.44,25.653,57.074c2.4,1.18,5.406,1.139,7.967-0.076l3.122-1.481
			c0.625-0.301,1.055-0.861,1.171-1.543c0.119-0.684-0.095-1.355-0.583-1.846l-8.995-9.02c-0.353-0.354-0.938-0.402-1.35-0.119
			l-2.938,2.053c-1.245,0.872-2.7,1.331-4.21,1.331c-2.875,0-5.43-1.608-6.663-4.201L6.903,29.029
			c-0.932-1.964-0.958-4.222-0.065-6.204c0.894-1.976,2.599-3.457,4.686-4.054l3.444-0.99c0.49-0.141,0.812-0.615,0.756-1.123
			L14.378,3.991C14.262,2.915,13.361,2.107,12.282,2.107L12.282,2.107z"/>
		<path fill="#00FF5A" d="M12.015,19.865c-0.531,0-0.987-0.4-1.043-0.94L9.626,6.255C9.565,5.68,9.983,5.159,10.56,5.097
			c0.571-0.066,1.097,0.356,1.159,0.936L13.064,18.7c0.062,0.578-0.357,1.099-0.934,1.158
			C12.091,19.863,12.051,19.865,12.015,19.865z"/>
		<path fill="#00FF5A" d="M33.324,54.701c-0.269,0-0.537-0.104-0.744-0.308l-8.998-9.019c-0.41-0.413-0.41-1.08,0-1.487
			c0.413-0.412,1.081-0.412,1.49,0l8.998,9.016c0.409,0.414,0.409,1.082,0,1.49C33.864,54.599,33.597,54.701,33.324,54.701
			L33.324,54.701z"/>
	</g>
</g>
</svg>
