<svg xmlns="http://www.w3.org/2000/svg" viewBox="0 0 420 110" fill="none">
  <g transform="translate(0,105.9) scale(0.023529,-0.023529)" fill="#74FB71" fill-rule="evenodd">
    <path d="M1008 4282 c-111 -77 -258 -200 -258 -216 0 -14 1361 -1376 1375 -1376 5 0 243 233 527 517 l517 517 17 -15 c10 -8 50 -53 89 -100 106 -127 205 -293 250 -420 l13 -36 -164 -164 c-90 -90 -164 -169 -164 -176 l0 -13 434 0 435 0 7 12 c20 31 -21 259 -78 438 -98 307 -266 577 -500 806 -156 153 -362 305 -390 288 -7 -4 -232 -226 -501 -493 -268 -267 -491 -487 -495 -489 -4 -1 -230 221 -502 493 -272 272 -499 495 -505 495 -5 -1 -54 -31 -107 -68z"/>
    <path d="M522 3812 c-170 -214 -323 -593 -363 -896 l-11 -89 5 -241 5 -241 21 -93 c89 -399 263 -723 536 -998 293 -296 641 -477 1075 -561 l95 -18 235 0 235 0 100 19 c325 60 606 181 861 372 103 76 315 288 390 389 85 115 174 267 223 381 23 54 46 108 51 119 44 99 107 379 112 500 l3 70 -875 3 -875 2 -230 -230 -230 -231 15 -9 c9 -6 332 -9 804 -9 433 0 790 -2 793 -5 7 -7 -58 -133 -110 -214 -146 -225 -356 -413 -597 -533 -107 -54 -255 -103 -388 -131 l-107 -22 -175 1 -175 0 -110 22 c-713 148 -1215 757 -1216 1476 0 118 15 247 40 354 33 133 125 361 147 361 6 0 77 -20 158 -45 82 -25 156 -45 166 -45 l18 0 -289 288 c-160 158 -294 288 -298 290 -5 2 -22 -14 -39 -36z"/>
  </g>
  <text x="118" y="58" font-family="Montserrat,'Arial Black',sans-serif" font-weight="800" font-size="38" fill="white" letter-spacing="3">MOTO GO 24</text>
  <text x="118" y="82" font-family="Montserrat,Arial,sans-serif" font-weight="400" font-size="16" fill="white" letter-spacing="5">PŮJČOVNA MOTOREK</text>
</svg>
