<?xml version="1.0" encoding="utf-8"?>
<!-- Generator: Adobe Illustrator 16.0.0, SVG Export Plug-In . SVG Version: 6.00 Build 0)  -->
<!DOCTYPE svg PUBLIC "-//W3C//DTD SVG 1.1//EN" "http://www.w3.org/Graphics/SVG/1.1/DTD/svg11.dtd">
<svg version="1.1" id="Vrstva_1" xmlns="http://www.w3.org/2000/svg" xmlns:xlink="http://www.w3.org/1999/xlink" x="0px" y="0px"
	 width="84.136px" height="59.979px" viewBox="-2.127 1.932 84.136 59.979" enable-background="new -2.127 1.932 84.136 59.979"
	 xml:space="preserve">
<g>
	<path fill="#093E2E" d="M77.489,1.932H2.39c-2.494,0.004-4.514,2.024-4.517,4.519v50.942c0.003,2.495,2.023,4.515,4.517,4.518
		h75.099c2.494-0.003,4.517-2.022,4.521-4.518V6.451C82.006,3.956,79.983,1.936,77.489,1.932z M79.544,57.393
		c-0.004,1.131-0.921,2.052-2.055,2.054H2.39c-1.133-0.002-2.051-0.923-2.053-2.054V6.451c0.001-1.133,0.92-2.052,2.053-2.054
		h75.099c1.134,0.002,2.051,0.921,2.055,2.054V57.393z"/>
	<path fill="#093E2E" d="M72.56,43.012H56.128c-1.589,0.003-2.874,1.289-2.877,2.878v6.571c0.003,1.589,1.288,2.875,2.877,2.877
		H72.56c1.585-0.002,2.874-1.288,2.874-2.877V45.89C75.434,44.301,74.145,43.015,72.56,43.012z M72.971,52.461
		c0,0.229-0.187,0.411-0.411,0.411H56.128c-0.229,0-0.411-0.183-0.411-0.411V45.89c0-0.229,0.183-0.411,0.411-0.411H72.56
		c0.225,0,0.411,0.183,0.411,0.411V52.461z"/>
	<path fill="#093E2E" d="M30.328,8.505H7.321c-1.587,0.001-2.873,1.288-2.876,2.875v29.577c0.003,1.589,1.289,2.875,2.876,2.878
		h23.007c1.587-0.003,2.873-1.289,2.875-2.878V11.381C33.201,9.793,31.915,8.507,30.328,8.505z M30.738,40.957
		c0,0.229-0.184,0.411-0.41,0.411H7.321c-0.227,0-0.41-0.183-0.41-0.411v-1.642c-0.009-4.535,2.569-8.68,6.64-10.68
		c2.98,2.739,7.566,2.739,10.546,0c4.072,2,6.648,6.145,6.641,10.68V40.957z M18.824,28.224c-2.95,0-5.34-2.392-5.34-5.34
		c0-2.951,2.39-5.342,5.34-5.342c2.95,0,5.34,2.391,5.34,5.342l0,0C24.162,25.831,21.772,28.22,18.824,28.224z M25.652,26.663
		c2.094-3.769,0.736-8.52-3.033-10.613c-3.769-2.093-8.52-0.734-10.613,3.033c-1.31,2.357-1.31,5.223,0,7.58
		c-2.045,1.096-3.793,2.67-5.095,4.589V11.381c0-0.227,0.183-0.411,0.41-0.411h23.007c0.227,0,0.41,0.184,0.41,0.411v19.872
		C29.437,29.333,27.693,27.759,25.652,26.663z"/>
	<path fill="#093E2E" d="M31.97,52.872H12.868c-0.682,0-1.233,0.551-1.233,1.231c0,0.684,0.551,1.234,1.233,1.234H31.97
		c0.682,0,1.232-0.551,1.232-1.234C33.203,53.423,32.652,52.872,31.97,52.872z"/>
	<path fill="#093E2E" d="M6.622,52.872H5.678c-0.681,0-1.233,0.551-1.233,1.231c0,0.684,0.552,1.234,1.233,1.234h0.944
		c0.681,0,1.233-0.551,1.233-1.234C7.855,53.423,7.303,52.872,6.622,52.872L6.622,52.872z"/>
	<path fill="#093E2E" d="M48.211,17.543H73.63c0.679,0,1.23-0.552,1.23-1.232c0-0.681-0.552-1.233-1.23-1.233H48.211
		c-0.68,0-1.232,0.552-1.232,1.233C46.978,16.991,47.531,17.543,48.211,17.543z"/>
	<path fill="#093E2E" d="M40.761,17.543h1.313c0.684,0,1.235-0.552,1.235-1.232c0-0.681-0.552-1.233-1.235-1.233h-1.313
		c-0.681,0-1.232,0.552-1.232,1.233C39.529,16.991,40.081,17.543,40.761,17.543z"/>
	<path fill="#093E2E" d="M40.761,25.76H73.63c0.679,0,1.23-0.553,1.23-1.233c0-0.681-0.552-1.232-1.23-1.232H40.761
		c-0.681,0-1.232,0.551-1.232,1.232C39.529,25.207,40.081,25.76,40.761,25.76z"/>
	<path fill="#093E2E" d="M74.86,32.744c0-0.681-0.552-1.234-1.23-1.234H40.761c-0.681,0-1.232,0.554-1.232,1.234
		c0,0.68,0.552,1.23,1.232,1.23H73.63C74.308,33.975,74.86,33.424,74.86,32.744L74.86,32.744z"/>
</g>
</svg>
