<?xml version="1.0" encoding="utf-8"?>
<!-- Generator: Adobe Illustrator 16.0.0, SVG Export Plug-In . SVG Version: 6.00 Build 0)  -->
<!DOCTYPE svg PUBLIC "-//W3C//DTD SVG 1.1//EN" "http://www.w3.org/Graphics/SVG/1.1/DTD/svg11.dtd">
<svg version="1.1" id="Vrstva_1" xmlns="http://www.w3.org/2000/svg" xmlns:xlink="http://www.w3.org/1999/xlink" x="0px" y="0px"
	 width="60.051px" height="60.049px" viewBox="-2.127 1.86 60.051 60.049" enable-background="new -2.127 1.86 60.051 60.049"
	 xml:space="preserve">
<g>
	<path fill="#093E2E" d="M57.886,16.107c-0.205-0.769-0.712-1.424-1.402-1.822c-0.69-0.4-1.513-0.508-2.283-0.301
		c-0.771,0.208-1.426,0.712-1.825,1.403l-0.501,0.873c-0.476-0.275-1.082-0.114-1.361,0.359l-2.546,4.339l-0.871-0.502
		c-0.231-0.134-0.505-0.168-0.764-0.1c-0.257,0.07-0.477,0.239-0.609,0.471c-0.27,0.479-0.104,1.089,0.372,1.363l0.871,0.501
		l-8.516,14.757l-2.104,5.621l-1.003,1.874c-0.587,1.02-0.523,2.289,0.16,3.245l-2.255,2.767l-0.631-1.582
		c-0.283-0.708-0.942-1.19-1.7-1.249c-0.759-0.06-1.485,0.314-1.876,0.967l-0.361,0.61l-0.339-4.008
		c-0.079-0.946-0.813-1.71-1.757-1.823c-0.945-0.113-1.838,0.452-2.14,1.354l-2.465,7.395c-0.172,0.522,0.11,1.086,0.632,1.262
		c0.097,0.046,0.202,0.073,0.309,0.081c0.432,0,0.814-0.274,0.951-0.683l2.456-7.394l0.352,4.068
		c0.072,0.867,0.695,1.589,1.544,1.784c0.847,0.198,1.727-0.175,2.172-0.923l0.37-0.612l0.621,1.575
		c0.265,0.662,0.862,1.135,1.567,1.24s1.413-0.174,1.86-0.73l2.333-2.955c0.26,0.067,0.525,0.101,0.793,0.101
		c1.074,0.009,2.07-0.558,2.615-1.484l1.002-1.673l3.816-4.639l8.605-14.938l0.872,0.5c0.232,0.134,0.402,0.353,0.47,0.612
		c0.071,0.257,0.035,0.531-0.098,0.761l-4.008,6.943c-0.153,0.229-0.203,0.508-0.144,0.775c0.063,0.265,0.229,0.496,0.463,0.637
		c0.231,0.135,0.505,0.171,0.764,0.101c0.258-0.069,0.477-0.238,0.609-0.47l4.008-6.944c0.4-0.691,0.508-1.513,0.3-2.284
		c-0.207-0.771-0.711-1.427-1.402-1.825l-0.872-0.5l2.505-4.339c0.273-0.476,0.113-1.083-0.359-1.362l0.5-0.872
		C57.997,17.729,58.105,16.89,57.886,16.107z M54.11,16.387c0.132-0.232,0.353-0.401,0.611-0.471c0.257-0.063,0.529-0.027,0.762,0.1
		c0.231,0.133,0.401,0.353,0.472,0.612c0.063,0.257,0.027,0.529-0.102,0.761l-0.501,0.871l-1.744-1.002L54.11,16.387z
		 M40.455,44.361l-0.501-0.291l-1.483-0.86l1.423-3.808l3.156,1.822L40.455,44.361z M37.449,47.255
		c-0.423-0.295-0.555-0.863-0.302-1.312l0.501-0.872l1.745,1.002l-0.501,0.862c-0.141,0.242-0.376,0.417-0.652,0.477
		C37.967,47.474,37.679,47.417,37.449,47.255z M44.192,39.582l-3.467-2.005l8.015-13.885l3.466,2.002L44.192,39.582z M53.208,23.962
		l-3.467-2.004l2.004-3.466l3.467,2.004L53.208,23.962z"/>
	<path fill="#093E2E" d="M13.683,46.754l-3.546,3.537l-2.124-2.123c-0.391-0.39-1.022-0.39-1.414,0
		c-0.189,0.188-0.295,0.444-0.295,0.712c0,0.266,0.106,0.522,0.295,0.71l2.125,2.123c0.375,0.373,0.883,0.582,1.412,0.582
		c0.533,0.004,1.045-0.205,1.424-0.582l3.536-3.545c0.34-0.399,0.318-0.991-0.053-1.36C14.674,46.438,14.081,46.413,13.683,46.754z"
		/>
	<path fill="#093E2E" d="M1.881,49.45c0,4.703,3.813,8.515,8.517,8.515c4.703,0,8.515-3.812,8.515-8.515
		c0-0.555-0.448-1.002-1.001-1.002c-0.555,0-1.003,0.447-1.003,1.002c0,3.597-2.916,6.511-6.511,6.511
		c-3.597,0-6.513-2.914-6.513-6.511s2.916-6.513,6.513-6.513c1.409-0.005,2.782,0.454,3.907,1.303
		c0.442,0.332,1.071,0.242,1.401-0.2c0.333-0.443,0.243-1.07-0.199-1.402c-2.581-1.936-6.035-2.248-8.918-0.805
		C3.703,43.275,1.881,46.224,1.881,49.45z"/>
	<path fill="#093E2E" d="M33.942,9.875c0.553,0,1.002-0.448,1.002-1.001s-0.449-1.001-1.002-1.001H7.893
		c-0.554,0-1.002,0.448-1.002,1.001v4.006c0,0.555,0.448,1.003,1.002,1.003h26.049c0.553,0,1.002-0.448,1.002-1.003
		c0-0.552-0.449-1.001-1.002-1.001H8.895V9.875H33.942z"/>
	<path fill="#093E2E" d="M10.899,15.887c-0.553,0-1.002,0.448-1.002,1.001c0,0.555,0.449,1.003,1.002,1.003h20.038
		c0.554,0,1.002-0.448,1.002-1.003c0-0.553-0.448-1.001-1.002-1.001H10.899z"/>
	<path fill="#093E2E" d="M36.948,22.9H14.906c-0.553,0-1.002,0.45-1.002,1.003s0.449,1.001,1.002,1.001h22.042
		c0.554,0,1.002-0.448,1.002-1.001S37.502,22.9,36.948,22.9z"/>
	<path fill="#093E2E" d="M26.928,29.913c0-0.552-0.449-1.001-1.002-1.001H5.888c-0.552,0-1.001,0.449-1.001,1.001
		c0,0.555,0.449,1.002,1.001,1.002h20.038C26.479,30.915,26.928,30.468,26.928,29.913z"/>
	<path fill="#093E2E" d="M36.948,28.911h-7.014c-0.552,0-1.001,0.449-1.001,1.001c0,0.555,0.449,1.002,1.001,1.002h7.014
		c0.554,0,1.002-0.448,1.002-1.002C37.95,29.361,37.502,28.911,36.948,28.911z"/>
	<path fill="#093E2E" d="M15.908,35.925c0.553,0,1.001-0.448,1.001-1.003c0-0.554-0.448-1.001-1.001-1.001H5.888
		c-0.552,0-1.001,0.447-1.001,1.001c0,0.555,0.449,1.003,1.001,1.003H15.908z"/>
	<path fill="#093E2E" d="M19.916,35.925h7.013c0.553,0,1.001-0.448,1.001-1.003c0-0.554-0.448-1.001-1.001-1.001h-7.013
		c-0.555,0-1.003,0.447-1.003,1.001C18.913,35.477,19.361,35.925,19.916,35.925z"/>
	<path fill="#093E2E" d="M42.96,47.947c-0.555,0-1.002,0.448-1.002,1.003v10.019c0,0.554-0.448,1.001-1.002,1.001H0.879
		c-0.553,0-1.002-0.447-1.002-1.001V4.866c0-0.553,0.449-1.001,1.002-1.001h40.077c0.554,0,1.002,0.448,1.002,1.001v18.815
		c0,0.553,0.447,1.002,1.002,1.002c0.554,0,1.002-0.449,1.002-1.002V4.866c0-1.66-1.348-3.006-3.006-3.006H0.879
		c-1.66,0-3.006,1.346-3.006,3.006v54.102c0,1.659,1.346,3.005,3.006,3.005h40.077c1.658,0,3.006-1.346,3.006-3.005V48.949
		C43.962,48.395,43.513,47.947,42.96,47.947z"/>
</g>
</svg>
