<?xml version="1.0" encoding="utf-8"?>
<!-- Generator: Adobe Illustrator 16.0.0, SVG Export Plug-In . SVG Version: 6.00 Build 0)  -->
<!DOCTYPE svg PUBLIC "-//W3C//DTD SVG 1.1//EN" "http://www.w3.org/Graphics/SVG/1.1/DTD/svg11.dtd">
<svg version="1.1" id="Capa_1" xmlns="http://www.w3.org/2000/svg" xmlns:xlink="http://www.w3.org/1999/xlink" x="0px" y="0px"
	 width="60.214px" height="60.213px" viewBox="451.786 451.784 60.214 60.213"
	 enable-background="new 451.786 451.784 60.214 60.213" xml:space="preserve">
<g>
	<path fill="#093E2E" d="M506.083,480.729c3.263,0,5.917-2.654,5.917-5.916V457.7c0-3.263-2.654-5.916-5.917-5.916H488.97
		c-3.262,0-5.916,2.653-5.916,5.916v17.112c0,3.262,2.654,5.916,5.916,5.916h7.675v29.505h-16.542l-1.838-5.053
		c1.436-1.127,2.361-2.877,2.361-4.841v-4.316c0-0.308-0.023-0.616-0.069-0.917c-0.073-0.482-0.521-0.813-1.004-0.74
		c-0.481,0.073-0.813,0.522-0.74,1.004c0.032,0.214,0.049,0.434,0.049,0.653v4.316c0,2.421-1.97,4.391-4.39,4.391h-0.277
		c1.136-1.122,1.836-2.677,1.836-4.357v-8.455c0.526,0.198,1.01,0.498,1.43,0.889c0.17,0.159,0.385,0.237,0.601,0.237
		c0.236,0,0.472-0.095,0.646-0.281c0.332-0.356,0.313-0.915-0.044-1.247c-0.753-0.7-1.652-1.192-2.634-1.446
		c-0.039-2.432-1.149-4.726-3.013-6.27c0.064-0.333,0.1-0.676,0.1-1.027c0-0.619-0.106-1.214-0.299-1.768l1.769-2h0.464v0.835
		c0,0.487,0.395,0.882,0.882,0.882s0.883-0.395,0.883-0.882v-0.835h2.481c1.459,0,2.646-1.187,2.646-2.646
		c0-0.706-0.274-1.37-0.775-1.873c-0.501-0.499-1.165-0.773-1.87-0.773h-2.482v-0.443c0-0.487-0.395-0.882-0.882-0.882
		s-0.882,0.395-0.882,0.882v0.443h-0.773v-3.241l0.635-0.636c0.636,0.407,1.39,0.644,2.198,0.644c2.254,0,4.089-1.834,4.089-4.089
		c0-2.254-1.835-4.089-4.089-4.089c-2.255,0-4.089,1.835-4.089,4.089c0,0.809,0.236,1.563,0.644,2.198l-0.895,0.894
		c-0.165,0.165-0.258,0.39-0.258,0.623v3.759c-0.42,0.148-0.8,0.401-1.1,0.741l-2.559,2.892c-0.366-0.079-0.745-0.121-1.135-0.121
		c-0.389,0-0.769,0.042-1.135,0.121l-2.559-2.892c-0.301-0.34-0.681-0.593-1.1-0.74v-3.76c0-0.233-0.093-0.458-0.259-0.623
		l-0.894-0.895c0.407-0.635,0.644-1.389,0.644-2.197c0-2.255-1.834-4.089-4.089-4.089s-4.089,1.834-4.089,4.089
		s1.834,4.089,4.089,4.089c0.809,0,1.563-0.237,2.198-0.644l0.635,0.635v3.242h-0.773v-0.443c0-0.487-0.395-0.883-0.882-0.883
		s-0.882,0.396-0.882,0.883v0.443h-2.48c-1.459,0-2.646,1.187-2.646,2.646c0,0.706,0.274,1.37,0.776,1.873
		c0.5,0.498,1.164,0.773,1.87,0.773h2.48v0.834c0,0.487,0.396,0.883,0.882,0.883c0.487,0,0.883-0.396,0.883-0.883v-0.834h0.464
		l1.769,2c-0.193,0.554-0.299,1.148-0.299,1.768c0,0.351,0.034,0.694,0.099,1.026c-1.863,1.544-2.974,3.839-3.013,6.271
		c-2.668,0.696-4.597,3.13-4.597,5.954v4.315c0,3.394,2.761,6.154,6.154,6.154h2.898v1.648c0,0.771,0.229,1.488,0.619,2.091h-11.815
		c-0.487,0-0.882,0.395-0.882,0.882s0.395,0.882,0.882,0.882h50.787c0.487,0,0.882-0.395,0.882-0.882s-0.395-0.882-0.882-0.882
		h-5.046v-29.504H506.083z M479.295,475.478c0.235,0,0.458,0.092,0.623,0.257c0.167,0.167,0.259,0.39,0.259,0.625
		c0,0.486-0.396,0.882-0.882,0.882h-2.481v-1.764H479.295z M477.109,464.067c1.281,0,2.324,1.043,2.324,2.325
		c0,1.281-1.043,2.324-2.324,2.324c-1.282,0-2.325-1.043-2.325-2.324C474.784,465.11,475.827,464.067,477.109,464.067z
		 M472.734,475.774c0.166-0.188,0.406-0.296,0.659-0.296h1.656v1.764h-0.861c-0.252,0-0.493,0.108-0.66,0.298l-1.623,1.833
		c-0.372-0.458-0.819-0.854-1.32-1.169L472.734,475.774z M471.351,482.774c0,2.003-1.63,3.633-3.633,3.633s-3.633-1.63-3.633-3.633
		c0-2.004,1.63-3.633,3.633-3.633S471.351,480.77,471.351,482.774z M458.329,468.716c-1.282,0-2.325-1.043-2.325-2.324
		c0-1.282,1.043-2.325,2.325-2.325c1.281,0,2.324,1.043,2.324,2.325C460.653,467.673,459.61,468.716,458.329,468.716z
		 M456.143,477.241c-0.235,0-0.458-0.092-0.623-0.257c-0.167-0.168-0.259-0.39-0.259-0.625c0-0.486,0.396-0.882,0.882-0.882h2.48
		v1.764H456.143z M461.91,477.539c-0.167-0.189-0.407-0.298-0.66-0.298h-0.861v-1.764h1.655c0.253,0,0.493,0.108,0.661,0.297
		l2.148,2.429c-0.502,0.315-0.948,0.711-1.321,1.17L461.91,477.539z M461.17,490.204c0-1.752,0.708-3.42,1.932-4.64
		c0.947,1.561,2.662,2.605,4.617,2.605s3.67-1.045,4.617-2.605c1.224,1.22,1.932,2.888,1.932,4.64v10.169
		c0,1.782-1.104,3.363-2.694,4.026v-5.983c0-2.125-1.729-3.854-3.854-3.854s-3.854,1.729-3.854,3.854v5.983
		c-1.59-0.662-2.695-2.244-2.695-4.026V490.204L461.17,490.204z M469.808,498.416v9.727c0,1.152-0.938,2.09-2.09,2.09
		s-2.09-0.938-2.09-2.09v-9.727c0-1.152,0.938-2.09,2.09-2.09S469.808,497.264,469.808,498.416z M456.575,500.34v-4.316
		c0-1.853,1.164-3.471,2.831-4.104v8.454c0,1.681,0.7,3.235,1.836,4.356h-0.276C458.545,504.73,456.575,502.761,456.575,500.34z
		 M471.573,508.143v-1.648h2.899c0.79,0,1.545-0.151,2.239-0.424l1.515,4.163h-7.272
		C471.345,509.63,471.573,508.913,471.573,508.143z M484.818,474.813V457.7c0-2.29,1.863-4.152,4.152-4.152h17.112
		c2.29,0,4.152,1.862,4.152,4.152v17.112c0,2.289-1.862,4.152-4.152,4.152H488.97C486.681,478.965,484.818,477.102,484.818,474.813
		L484.818,474.813z"/>
	<path fill="#093E2E" d="M498.588,455.136h-5.004c-0.521,0-1.007,0.107-1.445,0.318c-1.146,0.556-1.856,1.688-1.853,2.952v16.339
		c0,1.451,1.181,2.632,2.632,2.632h1.263c1.451,0,2.632-1.181,2.632-2.632v-2.864c0.69-0.003,1.343-0.006,1.775-0.006
		c4.671,0,8.471-3.754,8.471-8.37C507.058,458.89,503.259,455.136,498.588,455.136L498.588,455.136z M498.588,470.112
		c-0.617,0-1.677,0.005-2.662,0.01c-0.485,0.002-0.877,0.396-0.877,0.882v3.742c0,0.479-0.39,0.868-0.868,0.868h-1.263
		c-0.479,0-0.868-0.39-0.868-0.868v-16.342c-0.001-0.583,0.327-1.104,0.857-1.36c0.193-0.094,0.428-0.144,0.677-0.144h5.004
		c3.698,0,6.706,2.964,6.706,6.606S502.286,470.112,498.588,470.112z"/>
	<path fill="#093E2E" d="M498.588,459.898h-2.65c-0.234,0-0.459,0.094-0.624,0.26c-0.166,0.166-0.259,0.391-0.258,0.625
		c0.003,1.059,0.01,4.447,0.015,5.462c0.002,0.234,0.096,0.458,0.262,0.623c0.165,0.163,0.389,0.255,0.621,0.255h0.004
		c0.976-0.005,2.018-0.009,2.631-0.009c2.01,0,3.708-1.652,3.708-3.608C502.296,461.55,500.597,459.898,498.588,459.898z
		 M498.588,465.349c-0.431,0-1.074,0.002-1.757,0.006c-0.003-0.721-0.007-2.936-0.009-3.692h1.766c1.036,0,1.943,0.861,1.943,1.844
		C500.531,464.488,499.624,465.349,498.588,465.349L498.588,465.349z"/>
	<path fill="#093E2E" d="M511.118,510.234h-4.135c-0.487,0-0.883,0.395-0.883,0.882s0.396,0.882,0.883,0.882h4.135
		c0.487,0,0.882-0.395,0.882-0.882S511.605,510.234,511.118,510.234z"/>
	<path fill="#093E2E" d="M471.454,494.136c1.413,0,2.563-1.149,2.563-2.563c0-1.413-1.15-2.563-2.563-2.563
		c-1.414,0-2.564,1.15-2.564,2.563C468.889,492.987,470.04,494.136,471.454,494.136z M471.454,490.773c0.44,0,0.799,0.359,0.799,0.8
		c0,0.441-0.358,0.8-0.799,0.8c-0.441,0-0.8-0.358-0.8-0.8C470.654,491.132,471.012,490.773,471.454,490.773z"/>
	<path fill="#093E2E" d="M466.548,491.573c0-1.413-1.15-2.563-2.563-2.563c-1.414,0-2.564,1.15-2.564,2.563
		c0,1.414,1.15,2.563,2.564,2.563C465.397,494.136,466.548,492.987,466.548,491.573z M463.184,491.573c0-0.44,0.358-0.8,0.8-0.8
		c0.44,0,0.8,0.359,0.8,0.8c0,0.441-0.359,0.8-0.8,0.8C463.543,492.372,463.184,492.014,463.184,491.573L463.184,491.573z"/>
</g>
</svg>
