<?xml version="1.0" encoding="utf-8"?>
<!-- Generator: Adobe Illustrator 16.0.0, SVG Export Plug-In . SVG Version: 6.00 Build 0)  -->
<!DOCTYPE svg PUBLIC "-//W3C//DTD SVG 1.1//EN" "http://www.w3.org/Graphics/SVG/1.1/DTD/svg11.dtd">
<svg version="1.1" id="Vrstva_1" xmlns="http://www.w3.org/2000/svg" xmlns:xlink="http://www.w3.org/1999/xlink" x="0px" y="0px"
	 width="59.999px" height="60.131px" viewBox="433.71 259.654 59.999 60.131" enable-background="new 433.71 259.654 59.999 60.131"
	 xml:space="preserve">
<path fill="#093E2E" d="M445.072,274.6c1.978,0,3.577-1.6,3.577-3.578c0-1.974-1.6-3.574-3.577-3.574
	c-0.949,0-1.856,0.377-2.529,1.046c-1.386,1.423-1.355,3.697,0.063,5.085C443.27,274.223,444.15,274.587,445.072,274.6z
	 M444.063,270.013c0.566-0.549,1.471-0.536,2.022,0.029c0.536,0.555,0.536,1.438,0,1.993c-0.567,0.551-1.471,0.536-2.022-0.031
	C443.522,271.45,443.522,270.57,444.063,270.013z"/>
<path fill="#093E2E" d="M493.708,317.611c0.002-0.079,0.002-0.157-0.004-0.236l-0.753-6.217c-0.061-0.474-0.277-0.914-0.615-1.251
	l-5.146-5.146c-0.427-0.413-1.108-0.398-1.519,0.026c-0.401,0.419-0.401,1.077,0,1.493l5.148,5.148l0.395,3.263l-21.321-21.32
	l1.435-1.436l11.315,11.314c0.427,0.41,1.108,0.398,1.519-0.029c0.397-0.416,0.397-1.073,0-1.489
	c-0.052-0.039-12.051-12.057-12.094-12.092l-3.652-3.651c4.114-10.03-7.58-21.81-12.947-25.39c-2.361-1.791-5.236-0.769-7.389,0.841
	c-1.14-0.575-2.496-0.527-3.59,0.133c-3.607,2.221-6.646,5.26-8.87,8.87c-0.672,1.088-0.72,2.447-0.127,3.58
	c-1.6,2.144-2.629,5.034-0.844,7.394c3.195,4.905,14.709,16.425,24.267,13.293c0.024,0.023,4.054,4.054,4.072,4.075l1.826,1.823
	c0.654,0.681,1.667,0.868,2.521,0.461c0.604-0.296,1.334-0.043,1.63,0.563c0.166,0.344,0.162,0.744-0.012,1.086
	c-0.384,0.852-0.193,1.856,0.482,2.511l1.79,1.792c0.654,0.679,1.67,0.866,2.521,0.459c0.602-0.296,1.332-0.049,1.63,0.558
	c0.169,0.347,0.166,0.75-0.012,1.094c-0.384,0.854-0.19,1.856,0.482,2.509l1.781,1.784c0.657,0.671,1.666,0.855,2.52,0.455
	c0.477-0.229,1.046-0.134,1.423,0.24c0.37,0.377,0.454,0.953,0.207,1.42c-0.395,0.853-0.201,1.862,0.479,2.511
	c0.615,0.597,1.404,1.613,2.384,1.558l6.867,0.176c1.181,0.029,2.167-0.901,2.2-2.082
	C493.708,317.671,493.708,317.641,493.708,317.611L493.708,317.611z M449.699,291.723c-5.309-2.713-9.875-6.679-13.305-11.553
	c-0.669-0.926-0.744-2.158-0.189-3.159c0.175-0.313,0.358-0.627,0.545-0.94c1.071,1.643,2.272,3.194,3.593,4.643
	c0.41,0.427,1.092,0.442,1.52,0.029c0.415-0.397,0.442-1.058,0.057-1.488c-1.711-1.885-3.219-3.948-4.491-6.154
	c-0.277-0.475-0.271-1.064,0.022-1.532c2.046-3.321,4.844-6.118,8.164-8.165c0.628-0.344,1.402-0.259,1.941,0.208
	c2.797,1.69,7.806,5.19,9.952,9.633c1.927,3.72,0.471,8.296-3.249,10.218c-2.185,1.13-4.78,1.13-6.966,0.003
	c-0.822-0.41-1.605-0.892-2.341-1.443c-0.477-0.353-1.148-0.253-1.505,0.221c-1.015,1.533,2.002,2.544,2.909,3.155
	c4.789,2.438,10.649,0.53,13.087-4.259c1.41-2.773,1.41-6.056,0-8.829c-2.035-4.214-6.245-7.576-9.316-9.608
	c1.127-1.027,2.807-1.173,4.093-0.353c4.874,3.43,8.841,7.996,11.551,13.304c3.031,5.845,0.746,13.043-5.101,16.071
	C457.231,293.504,453.138,293.504,449.699,291.723z M464.414,291.804c1.22-1.061,2.254-2.32,3.05-3.73l2.349,2.345l-6.076,6.076
	l-2.585-2.586C462.334,293.368,463.434,292.66,464.414,291.804z M483.71,316.483c0.808-1.718,0.069-3.765-1.648-4.575
	c-0.923-0.435-1.989-0.438-2.915-0.004l-1.852-1.832c0.652-1.293,0.404-2.856-0.617-3.882c-1.042-1.021-2.606-1.293-3.934-0.688
	l-1.862-1.838c0.812-1.709,0.082-3.753-1.627-4.567c-0.923-0.437-1.993-0.439-2.921-0.006l-1.079-1.079l3.119-3.122l22.735,22.732
	l-6.411-0.166L483.71,316.483z"/>
</svg>
