<?xml version="1.0" encoding="utf-8"?>
<!-- Generator: Adobe Illustrator 16.0.0, SVG Export Plug-In . SVG Version: 6.00 Build 0)  -->
<!DOCTYPE svg PUBLIC "-//W3C//DTD SVG 1.1//EN" "http://www.w3.org/Graphics/SVG/1.1/DTD/svg11.dtd">
<svg version="1.1" id="svg1752" xmlns:svg="http://www.w3.org/2000/svg"
	 xmlns="http://www.w3.org/2000/svg" xmlns:xlink="http://www.w3.org/1999/xlink" x="0px" y="0px" width="36.512px"
	 height="36.512px" viewBox="0 0 36.512 36.512" enable-background="new 0 0 36.512 36.512" xml:space="preserve">
<g id="g1762">
	<g id="g1768" transform="translate(378.0996,53.5)">
		
			<path id="path1770" fill="none" stroke="#093E2E" stroke-width="1.5" stroke-linecap="round" stroke-linejoin="round" stroke-miterlimit="10" d="
			M-350.787-20.26c-2.642,1.602-5.741,2.522-9.057,2.522c-9.668,0-17.506-7.837-17.506-17.506s7.838-17.506,17.506-17.506
			c9.669,0,17.506,7.837,17.506,17.506c0,3.595-1.108,6.937-2.967,9.717"/>
	</g>
	<g id="g1772" transform="translate(256,349)">
		
			<path id="path1774" fill="none" stroke="#093E2E" stroke-width="1.5" stroke-linecap="round" stroke-linejoin="round" stroke-miterlimit="10" d="
			M-237.744-337.679v6.937l-7.641-7.9"/>
	</g>
	<g id="g1776" transform="translate(257,483)">
		
			<path id="path1778" fill="none" stroke="#093E2E" stroke-width="1.5" stroke-linecap="round" stroke-linejoin="round" stroke-miterlimit="10" d="
			M-238.669-481.619v2.299"/>
	</g>
	<g id="g1780" transform="translate(257,61)">
		
			<path id="path1782" fill="none" stroke="#093E2E" stroke-width="1.5" stroke-linecap="round" stroke-linejoin="round" stroke-miterlimit="10" d="
			M-238.669-28.316v2.299"/>
	</g>
	<g id="g1784" transform="translate(31,257)">
		
			<path id="path1786" fill="none" stroke="#093E2E" stroke-width="1.5" stroke-linecap="round" stroke-linejoin="round" stroke-miterlimit="10" d="
			M-29.432-238.855h2.299"/>
	</g>
	<g id="g1788" transform="translate(453,257)">
		
			<path id="path1790" fill="none" stroke="#093E2E" stroke-width="1.5" stroke-linecap="round" stroke-linejoin="round" stroke-miterlimit="10" d="
			M-420.13-238.855h2.3"/>
	</g>
</g>
</svg>
