<svg xmlns="http://www.w3.org/2000/svg" viewBox="0 0 33 33" shape-rendering="crispEdges" role="img" aria-label="QR"><rect width="33" height="33" fill="#ffffff"/><path d="M2,2h1v1h-1zM3,2h1v1h-1zM4,2h1v1h-1zM5,2h1v1h-1zM6,2h1v1h-1zM7,2h1v1h-1zM8,2h1v1h-1zM10,2h1v1h-1zM11,2h1v1h-1zM13,2h1v1h-1zM14,2h1v1h-1zM15,2h1v1h-1zM18,2h1v1h-1zM20,2h1v1h-1zM22,2h1v1h-1zM24,2h1v1h-1zM25,2h1v1h-1zM26,2h1v1h-1zM27,2h1v1h-1zM28,2h1v1h-1zM29,2h1v1h-1zM30,2h1v1h-1zM2,3h1v1h-1zM8,3h1v1h-1zM10,3h1v1h-1zM11,3h1v1h-1zM13,3h1v1h-1zM14,3h1v1h-1zM15,3h1v1h-1zM16,3h1v1h-1zM19,3h1v1h-1zM21,3h1v1h-1zM24,3h1v1h-1zM30,3h1v1h-1zM2,4h1v1h-1zM4,4h1v1h-1zM5,4h1v1h-1zM6,4h1v1h-1zM8,4h1v1h-1zM10,4h1v1h-1zM11,4h1v1h-1zM12,4h1v1h-1zM13,4h1v1h-1zM14,4h1v1h-1zM15,4h1v1h-1zM21,4h1v1h-1zM22,4h1v1h-1zM24,4h1v1h-1zM26,4h1v1h-1zM27,4h1v1h-1zM28,4h1v1h-1zM30,4h1v1h-1zM2,5h1v1h-1zM4,5h1v1h-1zM5,5h1v1h-1zM6,5h1v1h-1zM8,5h1v1h-1zM12,5h1v1h-1zM13,5h1v1h-1zM14,5h1v1h-1zM15,5h1v1h-1zM16,5h1v1h-1zM19,5h1v1h-1zM21,5h1v1h-1zM22,5h1v1h-1zM24,5h1v1h-1zM26,5h1v1h-1zM27,5h1v1h-1zM28,5h1v1h-1zM30,5h1v1h-1zM2,6h1v1h-1zM4,6h1v1h-1zM5,6h1v1h-1zM6,6h1v1h-1zM8,6h1v1h-1zM10,6h1v1h-1zM11,6h1v1h-1zM14,6h1v1h-1zM19,6h1v1h-1zM20,6h1v1h-1zM21,6h1v1h-1zM24,6h1v1h-1zM26,6h1v1h-1zM27,6h1v1h-1zM28,6h1v1h-1zM30,6h1v1h-1zM2,7h1v1h-1zM8,7h1v1h-1zM14,7h1v1h-1zM16,7h1v1h-1zM18,7h1v1h-1zM20,7h1v1h-1zM22,7h1v1h-1zM24,7h1v1h-1zM30,7h1v1h-1zM2,8h1v1h-1zM3,8h1v1h-1zM4,8h1v1h-1zM5,8h1v1h-1zM6,8h1v1h-1zM7,8h1v1h-1zM8,8h1v1h-1zM10,8h1v1h-1zM12,8h1v1h-1zM14,8h1v1h-1zM16,8h1v1h-1zM18,8h1v1h-1zM20,8h1v1h-1zM22,8h1v1h-1zM24,8h1v1h-1zM25,8h1v1h-1zM26,8h1v1h-1zM27,8h1v1h-1zM28,8h1v1h-1zM29,8h1v1h-1zM30,8h1v1h-1zM11,9h1v1h-1zM14,9h1v1h-1zM15,9h1v1h-1zM16,9h1v1h-1zM2,10h1v1h-1zM5,10h1v1h-1zM6,10h1v1h-1zM7,10h1v1h-1zM8,10h1v1h-1zM9,10h1v1h-1zM10,10h1v1h-1zM12,10h1v1h-1zM17,10h1v1h-1zM19,10h1v1h-1zM23,10h1v1h-1zM26,10h1v1h-1zM28,10h1v1h-1zM29,10h1v1h-1zM30,10h1v1h-1zM2,11h1v1h-1zM4,11h1v1h-1zM5,11h1v1h-1zM7,11h1v1h-1zM9,11h1v1h-1zM14,11h1v1h-1zM17,11h1v1h-1zM18,11h1v1h-1zM19,11h1v1h-1zM21,11h1v1h-1zM26,11h1v1h-1zM28,11h1v1h-1zM29,11h1v1h-1zM4,12h1v1h-1zM6,12h1v1h-1zM8,12h1v1h-1zM9,12h1v1h-1zM10,12h1v1h-1zM11,12h1v1h-1zM17,12h1v1h-1zM20,12h1v1h-1zM24,12h1v1h-1zM28,12h1v1h-1zM3,13h1v1h-1zM4,13h1v1h-1zM6,13h1v1h-1zM7,13h1v1h-1zM11,13h1v1h-1zM12,13h1v1h-1zM13,13h1v1h-1zM14,13h1v1h-1zM16,13h1v1h-1zM18,13h1v1h-1zM19,13h1v1h-1zM20,13h1v1h-1zM21,13h1v1h-1zM25,13h1v1h-1zM26,13h1v1h-1zM27,13h1v1h-1zM30,13h1v1h-1zM3,14h1v1h-1zM8,14h1v1h-1zM10,14h1v1h-1zM11,14h1v1h-1zM14,14h1v1h-1zM16,14h1v1h-1zM20,14h1v1h-1zM21,14h1v1h-1zM22,14h1v1h-1zM24,14h1v1h-1zM30,14h1v1h-1zM2,15h1v1h-1zM4,15h1v1h-1zM5,15h1v1h-1zM7,15h1v1h-1zM9,15h1v1h-1zM10,15h1v1h-1zM12,15h1v1h-1zM15,15h1v1h-1zM17,15h1v1h-1zM19,15h1v1h-1zM20,15h1v1h-1zM24,15h1v1h-1zM25,15h1v1h-1zM26,15h1v1h-1zM27,15h1v1h-1zM28,15h1v1h-1zM29,15h1v1h-1zM30,15h1v1h-1zM5,16h1v1h-1zM6,16h1v1h-1zM8,16h1v1h-1zM9,16h1v1h-1zM10,16h1v1h-1zM11,16h1v1h-1zM12,16h1v1h-1zM15,16h1v1h-1zM17,16h1v1h-1zM18,16h1v1h-1zM19,16h1v1h-1zM21,16h1v1h-1zM23,16h1v1h-1zM24,16h1v1h-1zM26,16h1v1h-1zM28,16h1v1h-1zM30,16h1v1h-1zM2,17h1v1h-1zM10,17h1v1h-1zM12,17h1v1h-1zM13,17h1v1h-1zM17,17h1v1h-1zM21,17h1v1h-1zM23,17h1v1h-1zM24,17h1v1h-1zM26,17h1v1h-1zM28,17h1v1h-1zM30,17h1v1h-1zM3,18h1v1h-1zM5,18h1v1h-1zM7,18h1v1h-1zM8,18h1v1h-1zM9,18h1v1h-1zM14,18h1v1h-1zM15,18h1v1h-1zM16,18h1v1h-1zM17,18h1v1h-1zM18,18h1v1h-1zM21,18h1v1h-1zM22,18h1v1h-1zM27,18h1v1h-1zM2,19h1v1h-1zM3,19h1v1h-1zM5,19h1v1h-1zM6,19h1v1h-1zM11,19h1v1h-1zM13,19h1v1h-1zM16,19h1v1h-1zM17,19h1v1h-1zM18,19h1v1h-1zM19,19h1v1h-1zM20,19h1v1h-1zM21,19h1v1h-1zM23,19h1v1h-1zM26,19h1v1h-1zM28,19h1v1h-1zM29,19h1v1h-1zM2,20h1v1h-1zM3,20h1v1h-1zM6,20h1v1h-1zM8,20h1v1h-1zM11,20h1v1h-1zM13,20h1v1h-1zM14,20h1v1h-1zM15,20h1v1h-1zM17,20h1v1h-1zM18,20h1v1h-1zM19,20h1v1h-1zM20,20h1v1h-1zM21,20h1v1h-1zM23,20h1v1h-1zM24,20h1v1h-1zM25,20h1v1h-1zM26,20h1v1h-1zM27,20h1v1h-1zM30,20h1v1h-1zM2,21h1v1h-1zM3,21h1v1h-1zM4,21h1v1h-1zM5,21h1v1h-1zM7,21h1v1h-1zM11,21h1v1h-1zM12,21h1v1h-1zM15,21h1v1h-1zM18,21h1v1h-1zM21,21h1v1h-1zM26,21h1v1h-1zM27,21h1v1h-1zM28,21h1v1h-1zM2,22h1v1h-1zM3,22h1v1h-1zM4,22h1v1h-1zM5,22h1v1h-1zM8,22h1v1h-1zM13,22h1v1h-1zM14,22h1v1h-1zM17,22h1v1h-1zM18,22h1v1h-1zM19,22h1v1h-1zM21,22h1v1h-1zM22,22h1v1h-1zM23,22h1v1h-1zM24,22h1v1h-1zM25,22h1v1h-1zM26,22h1v1h-1zM27,22h1v1h-1zM28,22h1v1h-1zM29,22h1v1h-1zM10,23h1v1h-1zM11,23h1v1h-1zM17,23h1v1h-1zM22,23h1v1h-1zM26,23h1v1h-1zM27,23h1v1h-1zM2,24h1v1h-1zM3,24h1v1h-1zM4,24h1v1h-1zM5,24h1v1h-1zM6,24h1v1h-1zM7,24h1v1h-1zM8,24h1v1h-1zM10,24h1v1h-1zM12,24h1v1h-1zM14,24h1v1h-1zM16,24h1v1h-1zM17,24h1v1h-1zM18,24h1v1h-1zM19,24h1v1h-1zM20,24h1v1h-1zM21,24h1v1h-1zM22,24h1v1h-1zM24,24h1v1h-1zM26,24h1v1h-1zM27,24h1v1h-1zM2,25h1v1h-1zM8,25h1v1h-1zM10,25h1v1h-1zM12,25h1v1h-1zM13,25h1v1h-1zM16,25h1v1h-1zM18,25h1v1h-1zM19,25h1v1h-1zM20,25h1v1h-1zM21,25h1v1h-1zM22,25h1v1h-1zM26,25h1v1h-1zM2,26h1v1h-1zM4,26h1v1h-1zM5,26h1v1h-1zM6,26h1v1h-1zM8,26h1v1h-1zM10,26h1v1h-1zM11,26h1v1h-1zM13,26h1v1h-1zM14,26h1v1h-1zM15,26h1v1h-1zM16,26h1v1h-1zM18,26h1v1h-1zM21,26h1v1h-1zM22,26h1v1h-1zM23,26h1v1h-1zM24,26h1v1h-1zM25,26h1v1h-1zM26,26h1v1h-1zM27,26h1v1h-1zM29,26h1v1h-1zM2,27h1v1h-1zM4,27h1v1h-1zM5,27h1v1h-1zM6,27h1v1h-1zM8,27h1v1h-1zM10,27h1v1h-1zM11,27h1v1h-1zM14,27h1v1h-1zM15,27h1v1h-1zM16,27h1v1h-1zM17,27h1v1h-1zM18,27h1v1h-1zM21,27h1v1h-1zM22,27h1v1h-1zM23,27h1v1h-1zM25,27h1v1h-1zM30,27h1v1h-1zM2,28h1v1h-1zM4,28h1v1h-1zM5,28h1v1h-1zM6,28h1v1h-1zM8,28h1v1h-1zM11,28h1v1h-1zM13,28h1v1h-1zM14,28h1v1h-1zM17,28h1v1h-1zM20,28h1v1h-1zM22,28h1v1h-1zM25,28h1v1h-1zM26,28h1v1h-1zM28,28h1v1h-1zM29,28h1v1h-1zM30,28h1v1h-1zM2,29h1v1h-1zM8,29h1v1h-1zM11,29h1v1h-1zM14,29h1v1h-1zM16,29h1v1h-1zM17,29h1v1h-1zM20,29h1v1h-1zM24,29h1v1h-1zM25,29h1v1h-1zM26,29h1v1h-1zM27,29h1v1h-1zM28,29h1v1h-1zM30,29h1v1h-1zM2,30h1v1h-1zM3,30h1v1h-1zM4,30h1v1h-1zM5,30h1v1h-1zM6,30h1v1h-1zM7,30h1v1h-1zM8,30h1v1h-1zM10,30h1v1h-1zM11,30h1v1h-1zM13,30h1v1h-1zM14,30h1v1h-1zM16,30h1v1h-1zM20,30h1v1h-1zM21,30h1v1h-1zM22,30h1v1h-1zM23,30h1v1h-1zM25,30h1v1h-1zM26,30h1v1h-1z" fill="#000000"/></svg>