<?xml version="1.0" encoding="utf-8"?>
<!-- Generator: Adobe Illustrator 16.0.0, SVG Export Plug-In . SVG Version: 6.00 Build 0)  -->
<!DOCTYPE svg PUBLIC "-//W3C//DTD SVG 1.1//EN" "http://www.w3.org/Graphics/SVG/1.1/DTD/svg11.dtd">
<svg version="1.1" id="Vrstva_1" xmlns="http://www.w3.org/2000/svg" xmlns:xlink="http://www.w3.org/1999/xlink" x="0px" y="0px"
	 width="61.854px" height="60.126px" viewBox="432.461 261.012 61.854 60.126"
	 enable-background="new 432.461 261.012 61.854 60.126" xml:space="preserve">
<g>
	<g>
		<g>
			<path fill="#093E2E" d="M494.221,315.154c-0.236-1.666-6.185-40.04-6.827-44.776c-0.321-2.39-2.373-4.217-4.825-4.217h-5.858
				v-2.792c0-1.299-1.058-2.357-2.358-2.357h-0.483c-1.301,0-2.361,1.059-2.361,2.357v2.792h-9.799v-2.792
				c0-1.299-1.058-2.357-2.36-2.357h-0.482c-1.303,0-2.36,1.059-2.36,2.357v2.792h-9.8v-2.792c0-1.299-1.057-2.357-2.359-2.357
				h-0.484c-1.301,0-2.359,1.059-2.359,2.357v2.792h-4.169c-2.688,0-4.872,2.185-4.872,4.869c0,1.384,0,44.553,0,45.239
				c0,2.683,2.185,4.868,4.872,4.868c0.806,0,51.233,0,52.177,0c2.029,0,3.864-1.277,4.568-3.174
				C494.172,317.712,494.463,316.763,494.221,315.154z M473.322,263.369c0-0.301,0.245-0.545,0.546-0.545h0.483
				c0.299,0,0.543,0.244,0.543,0.545v8.066c0,0.3-0.244,0.546-0.543,0.546h-0.483c-0.301,0-0.546-0.246-0.546-0.546V263.369z
				 M472.055,272.945c0.042,0.051,0.087,0.097,0.133,0.145c0.008,0.007,0.013,0.016,0.021,0.023
				c0.049,0.046,0.097,0.089,0.146,0.129c0.01,0.008,0.021,0.016,0.028,0.023c0.051,0.043,0.104,0.082,0.157,0.12
				c0.011,0.006,0.019,0.01,0.026,0.016c0.059,0.038,0.117,0.073,0.176,0.107c0.005,0.002,0.008,0.002,0.01,0.004
				c0.062,0.034,0.122,0.062,0.187,0.089c0.006,0.004,0.013,0.006,0.021,0.011c0.061,0.025,0.125,0.048,0.191,0.068
				c0.01,0.006,0.021,0.008,0.03,0.012c0.066,0.02,0.13,0.035,0.196,0.051c0.012,0.002,0.025,0.004,0.036,0.008
				c0.068,0.012,0.135,0.022,0.206,0.03c0.008,0.002,0.018,0.002,0.028,0.002c0.07,0.008,0.146,0.013,0.222,0.013h0.483
				c0.074,0,0.148-0.005,0.222-0.013c0.011,0,0.019,0,0.028-0.002c0.069-0.008,0.138-0.019,0.204-0.03
				c0.013-0.004,0.026-0.006,0.036-0.008c0.066-0.014,0.132-0.031,0.196-0.051c0.01-0.004,0.022-0.006,0.032-0.012
				c0.064-0.021,0.131-0.043,0.191-0.068c0.009-0.005,0.013-0.007,0.021-0.011c0.064-0.027,0.125-0.055,0.187-0.089
				c0.002-0.002,0.005-0.002,0.008-0.004c0.061-0.034,0.119-0.069,0.176-0.107c0.01-0.006,0.018-0.01,0.025-0.016
				c0.057-0.038,0.107-0.077,0.158-0.12c0.01-0.008,0.018-0.016,0.028-0.023c0.051-0.04,0.099-0.083,0.146-0.129
				c0.008-0.008,0.015-0.017,0.022-0.023c0.046-0.048,0.089-0.094,0.129-0.145c0.004,0.032,0.004,0.066,0.004,0.099
				c0,1.135-0.923,2.055-2.055,2.055c-1.135,0-2.058-0.92-2.058-2.055C472.053,273.012,472.053,272.978,472.055,272.945z
				 M458.319,263.369c0-0.301,0.245-0.545,0.546-0.545h0.484c0.299,0,0.543,0.244,0.543,0.545v8.066c0,0.3-0.244,0.546-0.543,0.546
				h-0.484c-0.301,0-0.546-0.246-0.546-0.546V263.369z M457.053,272.945c0.041,0.051,0.085,0.097,0.13,0.145
				c0.008,0.007,0.016,0.016,0.023,0.023c0.045,0.046,0.095,0.089,0.146,0.129c0.01,0.008,0.019,0.016,0.028,0.023
				c0.051,0.043,0.104,0.082,0.157,0.12c0.009,0.006,0.019,0.01,0.025,0.016c0.057,0.038,0.115,0.073,0.177,0.107
				c0.002,0.002,0.007,0.002,0.01,0.004c0.059,0.034,0.122,0.062,0.183,0.089c0.009,0.004,0.017,0.006,0.021,0.011
				c0.063,0.025,0.128,0.048,0.19,0.068c0.014,0.006,0.024,0.008,0.034,0.012c0.063,0.02,0.13,0.035,0.196,0.051
				c0.012,0.002,0.022,0.004,0.036,0.008c0.065,0.012,0.134,0.022,0.204,0.03c0.01,0.002,0.02,0.002,0.026,0.002
				c0.074,0.008,0.149,0.013,0.225,0.013h0.482c0.076,0,0.149-0.005,0.224-0.013c0.009,0,0.019,0,0.028-0.002
				c0.069-0.008,0.138-0.019,0.204-0.03c0.013-0.004,0.022-0.006,0.036-0.008c0.065-0.014,0.132-0.031,0.196-0.051
				c0.01-0.004,0.021-0.006,0.032-0.012c0.064-0.021,0.128-0.043,0.192-0.068c0.008-0.005,0.012-0.007,0.02-0.011
				c0.063-0.027,0.125-0.055,0.184-0.089c0.005-0.002,0.007-0.002,0.011-0.004c0.061-0.034,0.119-0.069,0.176-0.107
				c0.008-0.006,0.018-0.01,0.024-0.016c0.055-0.038,0.108-0.077,0.159-0.12c0.01-0.008,0.018-0.016,0.028-0.023
				c0.051-0.04,0.099-0.083,0.146-0.129c0.007-0.008,0.015-0.017,0.022-0.023c0.046-0.048,0.089-0.094,0.129-0.145
				c0.004,0.032,0.004,0.066,0.004,0.099c0,1.135-0.923,2.055-2.058,2.055s-2.057-0.92-2.057-2.055
				C457.051,273.012,457.051,272.978,457.053,272.945z M443.317,263.369c0-0.301,0.245-0.545,0.544-0.545h0.484
				c0.301,0,0.545,0.244,0.545,0.545c0,1.517,0,6.512,0,8.066c0,0.3-0.244,0.546-0.545,0.546h-0.484
				c-0.299,0-0.544-0.246-0.544-0.546C443.317,270.707,443.317,264.146,443.317,263.369z M442.736,273.509
				c0.003,0.002,0.006,0.002,0.01,0.004c0.059,0.034,0.121,0.064,0.184,0.089c0.009,0.004,0.014,0.009,0.021,0.011
				c0.064,0.025,0.128,0.048,0.191,0.068c0.013,0.006,0.023,0.008,0.033,0.012c0.064,0.02,0.131,0.037,0.197,0.051
				c0.01,0.002,0.022,0.004,0.035,0.008c0.066,0.012,0.135,0.022,0.204,0.03c0.01,0.002,0.018,0.002,0.027,0.002
				c0.074,0.008,0.148,0.013,0.223,0.013h0.484c0.076,0,0.149-0.005,0.224-0.013c0.009,0,0.019,0,0.025-0.002
				c0.072-0.008,0.141-0.019,0.207-0.03c0.013-0.004,0.022-0.006,0.035-0.008c0.066-0.014,0.133-0.031,0.196-0.051
				c0.01-0.004,0.021-0.006,0.031-0.012c0.065-0.021,0.13-0.043,0.194-0.068c0.004-0.002,0.012-0.007,0.02-0.011
				c0.062-0.024,0.124-0.055,0.183-0.089c0.004,0,0.008-0.002,0.012-0.004c0.061-0.034,0.119-0.069,0.176-0.107
				c0.007-0.006,0.017-0.01,0.024-0.016c0.055-0.038,0.107-0.077,0.159-0.12c0.007-0.008,0.017-0.016,0.027-0.023
				c0.048-0.04,0.097-0.083,0.146-0.129c0.008-0.008,0.016-0.017,0.02-0.023c0.047-0.048,0.093-0.094,0.134-0.145
				c0.002,0.032,0.002,0.066,0.002,0.099c0,1.135-0.923,2.055-2.057,2.055c-1.176,0-2.111-0.986-2.055-2.153
				C442.234,273.167,442.474,273.365,442.736,273.509z M434.276,271.03c0-1.685,1.371-3.054,3.057-3.054h4.169v2.199
				c-2.612,2.376-0.927,6.738,2.602,6.738c2.136,0,3.872-1.736,3.872-3.87c0-1.099-0.467-2.139-1.271-2.868v-2.199h9.8v2.199
				c-0.803,0.731-1.27,1.77-1.27,2.868c0,2.134,1.736,3.87,3.872,3.87c2.135,0,3.87-1.736,3.87-3.87c0-1.099-0.467-2.137-1.27-2.868
				v-2.199h9.802v2.199c-0.803,0.731-1.271,1.77-1.271,2.868c0,2.134,1.735,3.87,3.872,3.87c2.134,0,3.872-1.736,3.872-3.87
				c0-1.099-0.47-2.137-1.272-2.868v-2.199h5.858c1.685,0,3.057,1.371,3.057,3.054v9.271h-51.349V271.03z M492.377,317.326
				c-0.44,1.196-1.592,1.996-2.867,1.996h-3.15c0.675-0.836,1.081-1.899,1.081-3.053v-12.021c0-0.5-0.408-0.907-0.907-0.907
				c-0.503,0-0.908,0.407-0.908,0.907v12.021c0,1.685-1.372,3.053-3.057,3.053h-45.235c-1.686,0-3.057-1.368-3.057-3.053v-30.765
				h22.718c0.503,0,0.907-0.406,0.907-0.907c0-0.5-0.404-0.908-0.907-0.908h-22.718v-1.572h51.349v1.572h-24.406
				c-0.502,0-0.907,0.408-0.907,0.908c0,0.501,0.405,0.907,0.907,0.907h24.406v14.511c0,0.501,0.405,0.907,0.908,0.907
				c0.499,0,0.907-0.406,0.907-0.907c0-0.709,0-16.375,0-17.088l4.98,32.474c0.003,0.006,0.003,0.011,0.003,0.016
				C492.615,316.669,492.383,317.313,492.377,317.326z"/>
		</g>
	</g>
	<g>
		<g>
			<path fill="#093E2E" d="M453.143,290.157h-2.987c-0.503,0-0.907,0.407-0.907,0.907c0,0.502,0.404,0.908,0.907,0.908h2.987
				c0.499,0,0.907-0.406,0.907-0.908C454.05,290.564,453.642,290.157,453.143,290.157z"/>
		</g>
	</g>
	<g>
		<g>
			<path fill="#093E2E" d="M461.448,290.157h-2.987c-0.503,0-0.908,0.407-0.908,0.907c0,0.502,0.405,0.908,0.908,0.908h2.987
				c0.499,0,0.907-0.406,0.907-0.908C462.355,290.564,461.949,290.157,461.448,290.157z"/>
		</g>
	</g>
	<g>
		<g>
			<path fill="#093E2E" d="M469.754,290.157h-2.987c-0.503,0-0.909,0.407-0.909,0.907c0,0.502,0.406,0.908,0.909,0.908h2.987
				c0.499,0,0.907-0.406,0.907-0.908C470.661,290.564,470.253,290.157,469.754,290.157z"/>
		</g>
	</g>
	<g>
		<g>
			<path fill="#093E2E" d="M478.06,290.157h-2.989c-0.501,0-0.907,0.407-0.907,0.907c0,0.502,0.406,0.908,0.907,0.908h2.989
				c0.499,0,0.907-0.406,0.907-0.908C478.967,290.564,478.559,290.157,478.06,290.157z"/>
		</g>
	</g>
	<g>
		<g>
			<path fill="#093E2E" d="M444.837,297.469h-2.987c-0.502,0-0.907,0.404-0.907,0.907c0,0.502,0.405,0.907,0.907,0.907h2.987
				c0.503,0,0.908-0.405,0.908-0.907C445.745,297.873,445.34,297.469,444.837,297.469z"/>
		</g>
	</g>
	<g>
		<g>
			<path fill="#093E2E" d="M453.143,297.469h-2.987c-0.503,0-0.907,0.404-0.907,0.907c0,0.502,0.404,0.907,0.907,0.907h2.987
				c0.499,0,0.907-0.405,0.907-0.907C454.05,297.873,453.642,297.469,453.143,297.469z"/>
		</g>
	</g>
	<g>
		<g>
			<path fill="#093E2E" d="M461.448,297.469h-2.987c-0.503,0-0.908,0.404-0.908,0.907c0,0.502,0.405,0.907,0.908,0.907h2.987
				c0.499,0,0.907-0.405,0.907-0.907C462.355,297.873,461.949,297.469,461.448,297.469z"/>
		</g>
	</g>
	<g>
		<g>
			<path fill="#093E2E" d="M469.754,297.469h-2.987c-0.503,0-0.909,0.404-0.909,0.907c0,0.502,0.406,0.907,0.909,0.907h2.987
				c0.499,0,0.907-0.405,0.907-0.907C470.661,297.873,470.253,297.469,469.754,297.469z"/>
		</g>
	</g>
	<g>
		<g>
			<path fill="#093E2E" d="M478.06,297.469h-2.989c-0.501,0-0.907,0.404-0.907,0.907c0,0.502,0.406,0.907,0.907,0.907h2.989
				c0.499,0,0.907-0.405,0.907-0.907C478.967,297.873,478.559,297.469,478.06,297.469z"/>
		</g>
	</g>
	<g>
		<g>
			<path fill="#093E2E" d="M444.837,304.779h-2.987c-0.502,0-0.907,0.405-0.907,0.908c0,0.499,0.405,0.907,0.907,0.907h2.987
				c0.503,0,0.908-0.408,0.908-0.907C445.745,305.185,445.34,304.779,444.837,304.779z"/>
		</g>
	</g>
	<g>
		<g>
			<path fill="#093E2E" d="M453.143,304.779h-2.987c-0.503,0-0.907,0.405-0.907,0.908c0,0.499,0.404,0.907,0.907,0.907h2.987
				c0.499,0,0.907-0.408,0.907-0.907C454.05,305.185,453.642,304.779,453.143,304.779z"/>
		</g>
	</g>
	<g>
		<g>
			<path fill="#093E2E" d="M461.448,304.779h-2.987c-0.503,0-0.908,0.405-0.908,0.908c0,0.499,0.405,0.907,0.908,0.907h2.987
				c0.499,0,0.907-0.408,0.907-0.907C462.355,305.185,461.949,304.779,461.448,304.779z"/>
		</g>
	</g>
	<g>
		<g>
			<path fill="#093E2E" d="M469.754,304.779h-2.987c-0.503,0-0.909,0.405-0.909,0.908c0,0.499,0.406,0.907,0.909,0.907h2.987
				c0.499,0,0.907-0.408,0.907-0.907C470.661,305.185,470.253,304.779,469.754,304.779z"/>
		</g>
	</g>
	<g>
		<g>
			<path fill="#093E2E" d="M478.06,304.779h-2.989c-0.501,0-0.907,0.405-0.907,0.908c0,0.499,0.406,0.907,0.907,0.907h2.989
				c0.499,0,0.907-0.408,0.907-0.907C478.967,305.185,478.559,304.779,478.06,304.779z"/>
		</g>
	</g>
	<g>
		<g>
			<path fill="#093E2E" d="M444.837,312.091h-2.987c-0.502,0-0.907,0.405-0.907,0.907c0,0.5,0.405,0.908,0.907,0.908h2.987
				c0.503,0,0.908-0.408,0.908-0.908C445.745,312.496,445.34,312.091,444.837,312.091z"/>
		</g>
	</g>
	<g>
		<g>
			<path fill="#093E2E" d="M453.143,312.091h-2.987c-0.503,0-0.907,0.405-0.907,0.907c0,0.5,0.404,0.908,0.907,0.908h2.987
				c0.499,0,0.907-0.408,0.907-0.908C454.05,312.496,453.642,312.091,453.143,312.091z"/>
		</g>
	</g>
	<g>
		<g>
			<path fill="#093E2E" d="M461.448,312.091h-2.987c-0.503,0-0.908,0.405-0.908,0.907c0,0.5,0.405,0.908,0.908,0.908h2.987
				c0.499,0,0.907-0.408,0.907-0.908C462.355,312.496,461.949,312.091,461.448,312.091z"/>
		</g>
	</g>
	<g>
		<g>
			<path fill="#093E2E" d="M469.754,312.091h-2.987c-0.503,0-0.909,0.405-0.909,0.907c0,0.5,0.406,0.908,0.909,0.908h2.987
				c0.499,0,0.907-0.408,0.907-0.908C470.661,312.496,470.253,312.091,469.754,312.091z"/>
		</g>
	</g>
</g>
</svg>
