<?xml version="1.0" encoding="utf-8"?>
<!-- Generator: Adobe Illustrator 16.0.0, SVG Export Plug-In . SVG Version: 6.00 Build 0)  -->
<!DOCTYPE svg PUBLIC "-//W3C//DTD SVG 1.1//EN" "http://www.w3.org/Graphics/SVG/1.1/DTD/svg11.dtd">
<svg version="1.1" id="Vrstva_1" xmlns="http://www.w3.org/2000/svg" xmlns:xlink="http://www.w3.org/1999/xlink" x="0px" y="0px"
	 width="61.854px" height="60.125px" viewBox="0 0 61.854 60.125" enable-background="new 0 0 61.854 60.125" xml:space="preserve">
<g>
	<g>
		<g>
			<path fill="#00FF5A" d="M61.758,54.143c-0.236-1.666-6.185-40.041-6.827-44.777c-0.321-2.39-2.373-4.217-4.825-4.217h-5.858
				V2.358C44.247,1.058,43.19,0,41.89,0h-0.483c-1.301,0-2.36,1.059-2.36,2.357v2.791h-9.799V2.358c0-1.3-1.059-2.357-2.36-2.357
				h-0.482c-1.303,0-2.359,1.059-2.359,2.357v2.791h-9.8V2.358c0-1.3-1.058-2.357-2.359-2.357h-0.484
				c-1.301,0-2.358,1.059-2.358,2.357v2.791H4.874c-2.688,0-4.872,2.186-4.872,4.869c0,1.385,0,44.553,0,45.238
				c0,2.684,2.185,4.869,4.872,4.869c0.806,0,51.232,0,52.177,0c2.028,0,3.864-1.277,4.567-3.174
				C61.708,56.7,61.999,55.75,61.758,54.143z M40.859,2.358c0-0.302,0.245-0.545,0.546-0.545h0.483c0.299,0,0.543,0.243,0.543,0.545
				v8.065c0,0.3-0.244,0.546-0.543,0.546h-0.483c-0.301,0-0.546-0.246-0.546-0.546V2.358z M39.592,11.933
				c0.042,0.052,0.087,0.097,0.133,0.146c0.008,0.007,0.013,0.016,0.021,0.022c0.05,0.046,0.098,0.089,0.146,0.13
				c0.01,0.008,0.021,0.016,0.028,0.022c0.051,0.043,0.104,0.082,0.157,0.12c0.011,0.006,0.019,0.01,0.025,0.016
				c0.059,0.038,0.117,0.073,0.176,0.107c0.006,0.002,0.008,0.002,0.01,0.004c0.063,0.033,0.123,0.063,0.188,0.089
				c0.006,0.004,0.013,0.006,0.021,0.011c0.061,0.025,0.125,0.049,0.19,0.068c0.01,0.006,0.021,0.008,0.03,0.012
				c0.066,0.02,0.13,0.035,0.196,0.051c0.012,0.002,0.024,0.004,0.036,0.008c0.067,0.012,0.135,0.022,0.205,0.03
				c0.009,0.003,0.019,0.003,0.028,0.003c0.07,0.008,0.146,0.012,0.222,0.012h0.483c0.074,0,0.147-0.004,0.222-0.012
				c0.012,0,0.02,0,0.028-0.003c0.069-0.008,0.138-0.019,0.204-0.03c0.013-0.004,0.025-0.006,0.036-0.008
				c0.065-0.014,0.132-0.031,0.196-0.051c0.01-0.004,0.021-0.006,0.031-0.012c0.064-0.021,0.131-0.043,0.191-0.068
				c0.009-0.005,0.013-0.007,0.021-0.011c0.064-0.026,0.125-0.056,0.188-0.089c0.002-0.002,0.005-0.002,0.008-0.004
				c0.062-0.034,0.119-0.069,0.176-0.107c0.011-0.006,0.019-0.01,0.025-0.016c0.057-0.038,0.106-0.077,0.158-0.12
				c0.01-0.009,0.018-0.017,0.027-0.022c0.052-0.041,0.1-0.084,0.146-0.13c0.008-0.008,0.015-0.017,0.021-0.022
				c0.046-0.049,0.089-0.094,0.13-0.146c0.004,0.032,0.004,0.066,0.004,0.099c0,1.136-0.924,2.056-2.056,2.056
				c-1.135,0-2.058-0.92-2.058-2.056C39.59,12,39.59,11.966,39.592,11.933z M25.856,2.358c0-0.302,0.245-0.545,0.546-0.545h0.484
				c0.299,0,0.543,0.243,0.543,0.545v8.065c0,0.3-0.244,0.546-0.543,0.546h-0.484c-0.301,0-0.546-0.246-0.546-0.546V2.358z
				 M24.59,11.933c0.041,0.052,0.085,0.097,0.13,0.146c0.008,0.007,0.016,0.016,0.023,0.022c0.045,0.046,0.095,0.089,0.146,0.13
				c0.01,0.008,0.019,0.016,0.028,0.022c0.051,0.043,0.104,0.082,0.156,0.12c0.01,0.006,0.02,0.01,0.025,0.016
				c0.057,0.038,0.115,0.073,0.177,0.107c0.002,0.002,0.007,0.002,0.011,0.004c0.059,0.033,0.121,0.063,0.183,0.089
				c0.009,0.004,0.017,0.006,0.021,0.011c0.063,0.025,0.129,0.049,0.19,0.068c0.014,0.006,0.024,0.008,0.034,0.012
				c0.063,0.02,0.13,0.035,0.195,0.051c0.013,0.002,0.022,0.004,0.036,0.008c0.065,0.012,0.135,0.022,0.204,0.03
				c0.01,0.003,0.021,0.003,0.026,0.003c0.074,0.008,0.149,0.012,0.225,0.012h0.482c0.076,0,0.149-0.004,0.224-0.012
				c0.01,0,0.02,0,0.028-0.003c0.069-0.008,0.138-0.019,0.204-0.03c0.013-0.004,0.021-0.006,0.036-0.008
				c0.064-0.014,0.132-0.031,0.196-0.051c0.01-0.004,0.021-0.006,0.031-0.012c0.064-0.021,0.128-0.043,0.192-0.068
				c0.008-0.005,0.012-0.007,0.02-0.011c0.063-0.026,0.125-0.056,0.185-0.089c0.005-0.002,0.007-0.002,0.011-0.004
				c0.062-0.034,0.119-0.069,0.176-0.107c0.008-0.006,0.019-0.01,0.024-0.016c0.055-0.038,0.107-0.077,0.158-0.12
				c0.011-0.009,0.019-0.017,0.028-0.022c0.052-0.041,0.1-0.084,0.146-0.13c0.007-0.008,0.015-0.017,0.021-0.022
				c0.046-0.049,0.089-0.094,0.129-0.146c0.005,0.032,0.005,0.066,0.005,0.099c0,1.136-0.924,2.056-2.059,2.056
				s-2.057-0.92-2.057-2.056C24.588,12,24.588,11.966,24.59,11.933z M10.854,2.358c0-0.302,0.245-0.545,0.544-0.545h0.484
				c0.301,0,0.545,0.243,0.545,0.545c0,1.516,0,6.512,0,8.065c0,0.3-0.244,0.546-0.545,0.546h-0.484
				c-0.299,0-0.544-0.246-0.544-0.546C10.854,9.696,10.854,3.134,10.854,2.358z M10.273,12.497c0.003,0.003,0.006,0.003,0.01,0.005
				c0.06,0.034,0.121,0.063,0.185,0.089c0.009,0.004,0.014,0.009,0.021,0.011c0.064,0.025,0.128,0.048,0.191,0.068
				c0.013,0.006,0.023,0.008,0.033,0.012c0.063,0.021,0.131,0.037,0.196,0.052c0.011,0.002,0.022,0.004,0.035,0.008
				c0.066,0.012,0.136,0.021,0.204,0.029c0.01,0.002,0.019,0.002,0.027,0.002c0.074,0.008,0.147,0.014,0.223,0.014h0.484
				c0.076,0,0.148-0.006,0.224-0.014c0.009,0,0.02,0,0.025-0.002c0.071-0.008,0.141-0.02,0.207-0.029
				c0.013-0.004,0.021-0.006,0.034-0.008c0.066-0.015,0.134-0.031,0.196-0.052c0.011-0.004,0.021-0.006,0.031-0.012
				c0.065-0.021,0.13-0.043,0.194-0.068c0.004-0.002,0.012-0.007,0.02-0.011c0.063-0.023,0.124-0.055,0.184-0.089
				c0.004,0,0.008-0.003,0.012-0.005c0.061-0.033,0.119-0.068,0.176-0.106c0.007-0.006,0.018-0.01,0.024-0.016
				c0.055-0.038,0.106-0.077,0.159-0.12c0.007-0.008,0.017-0.016,0.026-0.023c0.048-0.039,0.097-0.082,0.146-0.129
				c0.008-0.008,0.016-0.017,0.02-0.023c0.047-0.047,0.093-0.094,0.134-0.145c0.002,0.032,0.002,0.066,0.002,0.1
				c0,1.135-0.923,2.055-2.057,2.055c-1.176,0-2.111-0.986-2.055-2.153C9.771,12.155,10.011,12.354,10.273,12.497z M1.813,10.018
				c0-1.685,1.371-3.054,3.058-3.054h4.168v2.198c-2.611,2.377-0.927,6.738,2.603,6.738c2.136,0,3.872-1.735,3.872-3.869
				c0-1.1-0.467-2.14-1.271-2.869V6.964h9.801v2.198c-0.804,0.732-1.271,1.771-1.271,2.869c0,2.134,1.736,3.869,3.872,3.869
				c2.135,0,3.87-1.735,3.87-3.869c0-1.1-0.467-2.137-1.271-2.869V6.964h9.803v2.198c-0.803,0.732-1.271,1.771-1.271,2.869
				c0,2.134,1.735,3.869,3.872,3.869c2.134,0,3.872-1.735,3.872-3.869c0-1.1-0.47-2.137-1.271-2.869V6.964h5.857
				c1.686,0,3.057,1.371,3.057,3.054v9.271H1.813V10.018L1.813,10.018z M59.913,56.315c-0.439,1.195-1.592,1.996-2.866,1.996h-3.15
				c0.675-0.836,1.081-1.9,1.081-3.055v-12.02c0-0.5-0.408-0.908-0.907-0.908c-0.503,0-0.907,0.408-0.907,0.908v12.02
				c0,1.686-1.372,3.055-3.058,3.055H4.87c-1.686,0-3.057-1.369-3.057-3.055V24.493h22.718c0.503,0,0.907-0.406,0.907-0.907
				c0-0.5-0.404-0.908-0.907-0.908H1.814v-1.571h51.35v1.571H28.757c-0.502,0-0.907,0.408-0.907,0.908
				c0,0.501,0.405,0.907,0.907,0.907h24.406v14.51c0,0.502,0.404,0.908,0.907,0.908c0.499,0,0.907-0.406,0.907-0.908
				c0-0.709,0-16.374,0-17.088l4.98,32.475c0.003,0.006,0.003,0.012,0.003,0.016C60.152,55.657,59.92,56.301,59.913,56.315z"/>
		</g>
	</g>
	<g>
		<g>
			<path fill="#00FF5A" d="M20.68,29.145h-2.987c-0.503,0-0.906,0.407-0.906,0.907c0,0.502,0.403,0.908,0.906,0.908h2.987
				c0.499,0,0.907-0.406,0.907-0.908C21.587,29.552,21.179,29.145,20.68,29.145z"/>
		</g>
	</g>
	<g>
		<g>
			<path fill="#00FF5A" d="M28.985,29.145h-2.987c-0.502,0-0.907,0.407-0.907,0.907c0,0.502,0.405,0.908,0.907,0.908h2.987
				c0.499,0,0.907-0.406,0.907-0.908C29.892,29.552,29.486,29.145,28.985,29.145z"/>
		</g>
	</g>
	<g>
		<g>
			<path fill="#00FF5A" d="M37.291,29.145h-2.987c-0.503,0-0.909,0.407-0.909,0.907c0,0.502,0.406,0.908,0.909,0.908h2.987
				c0.499,0,0.906-0.406,0.906-0.908C38.198,29.552,37.79,29.145,37.291,29.145z"/>
		</g>
	</g>
	<g>
		<g>
			<path fill="#00FF5A" d="M45.597,29.145h-2.989c-0.501,0-0.907,0.407-0.907,0.907c0,0.502,0.406,0.908,0.907,0.908h2.989
				c0.499,0,0.907-0.406,0.907-0.908C46.504,29.552,46.096,29.145,45.597,29.145z"/>
		</g>
	</g>
	<g>
		<g>
			<path fill="#00FF5A" d="M12.374,36.458H9.387c-0.502,0-0.907,0.404-0.907,0.906s0.405,0.908,0.907,0.908h2.987
				c0.503,0,0.907-0.406,0.907-0.908S12.877,36.458,12.374,36.458z"/>
		</g>
	</g>
	<g>
		<g>
			<path fill="#00FF5A" d="M20.68,36.458h-2.987c-0.503,0-0.906,0.404-0.906,0.906s0.403,0.908,0.906,0.908h2.987
				c0.499,0,0.907-0.406,0.907-0.908S21.179,36.458,20.68,36.458z"/>
		</g>
	</g>
	<g>
		<g>
			<path fill="#00FF5A" d="M28.985,36.458h-2.987c-0.502,0-0.907,0.404-0.907,0.906s0.405,0.908,0.907,0.908h2.987
				c0.499,0,0.907-0.406,0.907-0.908S29.486,36.458,28.985,36.458z"/>
		</g>
	</g>
	<g>
		<g>
			<path fill="#00FF5A" d="M37.291,36.458h-2.987c-0.503,0-0.909,0.404-0.909,0.906s0.406,0.908,0.909,0.908h2.987
				c0.499,0,0.906-0.406,0.906-0.908S37.79,36.458,37.291,36.458z"/>
		</g>
	</g>
	<g>
		<g>
			<path fill="#00FF5A" d="M45.597,36.458h-2.989c-0.501,0-0.907,0.404-0.907,0.906s0.406,0.908,0.907,0.908h2.989
				c0.499,0,0.907-0.406,0.907-0.908S46.096,36.458,45.597,36.458z"/>
		</g>
	</g>
	<g>
		<g>
			<path fill="#00FF5A" d="M12.374,43.768H9.387c-0.502,0-0.907,0.404-0.907,0.906c0,0.5,0.405,0.908,0.907,0.908h2.987
				c0.503,0,0.907-0.408,0.907-0.908C13.281,44.172,12.877,43.768,12.374,43.768z"/>
		</g>
	</g>
	<g>
		<g>
			<path fill="#00FF5A" d="M20.68,43.768h-2.987c-0.503,0-0.906,0.404-0.906,0.906c0,0.5,0.403,0.908,0.906,0.908h2.987
				c0.499,0,0.907-0.408,0.907-0.908C21.587,44.172,21.179,43.768,20.68,43.768z"/>
		</g>
	</g>
	<g>
		<g>
			<path fill="#00FF5A" d="M28.985,43.768h-2.987c-0.502,0-0.907,0.404-0.907,0.906c0,0.5,0.405,0.908,0.907,0.908h2.987
				c0.499,0,0.907-0.408,0.907-0.908C29.892,44.172,29.486,43.768,28.985,43.768z"/>
		</g>
	</g>
	<g>
		<g>
			<path fill="#00FF5A" d="M37.291,43.768h-2.987c-0.503,0-0.909,0.404-0.909,0.906c0,0.5,0.406,0.908,0.909,0.908h2.987
				c0.499,0,0.906-0.408,0.906-0.908C38.198,44.172,37.79,43.768,37.291,43.768z"/>
		</g>
	</g>
	<g>
		<g>
			<path fill="#00FF5A" d="M45.597,43.768h-2.989c-0.501,0-0.907,0.404-0.907,0.906c0,0.5,0.406,0.908,0.907,0.908h2.989
				c0.499,0,0.907-0.408,0.907-0.908C46.504,44.172,46.096,43.768,45.597,43.768z"/>
		</g>
	</g>
	<g>
		<g>
			<path fill="#00FF5A" d="M12.374,51.079H9.387c-0.502,0-0.907,0.406-0.907,0.908c0,0.5,0.405,0.908,0.907,0.908h2.987
				c0.503,0,0.907-0.408,0.907-0.908C13.281,51.485,12.877,51.079,12.374,51.079z"/>
		</g>
	</g>
	<g>
		<g>
			<path fill="#00FF5A" d="M20.68,51.079h-2.987c-0.503,0-0.906,0.406-0.906,0.908c0,0.5,0.403,0.908,0.906,0.908h2.987
				c0.499,0,0.907-0.408,0.907-0.908C21.587,51.485,21.179,51.079,20.68,51.079z"/>
		</g>
	</g>
	<g>
		<g>
			<path fill="#00FF5A" d="M28.985,51.079h-2.987c-0.502,0-0.907,0.406-0.907,0.908c0,0.5,0.405,0.908,0.907,0.908h2.987
				c0.499,0,0.907-0.408,0.907-0.908C29.892,51.485,29.486,51.079,28.985,51.079z"/>
		</g>
	</g>
	<g>
		<g>
			<path fill="#00FF5A" d="M37.291,51.079h-2.987c-0.503,0-0.909,0.406-0.909,0.908c0,0.5,0.406,0.908,0.909,0.908h2.987
				c0.499,0,0.906-0.408,0.906-0.908C38.198,51.485,37.79,51.079,37.291,51.079z"/>
		</g>
	</g>
</g>
</svg>
