<?xml version="1.0" encoding="utf-8"?>
<!-- Generator: Adobe Illustrator 16.0.0, SVG Export Plug-In . SVG Version: 6.00 Build 0)  -->
<!DOCTYPE svg PUBLIC "-//W3C//DTD SVG 1.1//EN" "http://www.w3.org/Graphics/SVG/1.1/DTD/svg11.dtd">
<svg version="1.1" id="Vrstva_1" xmlns="http://www.w3.org/2000/svg" xmlns:xlink="http://www.w3.org/1999/xlink" x="0px" y="0px"
	 width="63.064px" height="60.392px" viewBox="416.917 410.109 63.064 60.392"
	 enable-background="new 416.917 410.109 63.064 60.392" xml:space="preserve">
<g id="Discount_Coupon">
	<path fill="#093E2E" d="M459.367,463.753c-0.621-0.001-1.126,0.503-1.126,1.125v0.001v1.126c0,0.622,0.505,1.126,1.126,1.126
		c0.622,0,1.127-0.504,1.127-1.126v-1.126C460.494,464.257,459.99,463.753,459.367,463.753
		C459.368,463.753,459.368,463.753,459.367,463.753z"/>
	<path fill="#093E2E" d="M459.367,450.238c-0.621,0-1.126,0.504-1.126,1.126c0,0,0,0,0,0.001v1.126c0,0.622,0.505,1.126,1.126,1.126
		c0.622,0,1.127-0.504,1.127-1.126v-1.126C460.494,450.742,459.99,450.238,459.367,450.238
		C459.368,450.238,459.368,450.238,459.367,450.238z"/>
	<path fill="#093E2E" d="M459.367,454.742c-0.621,0-1.126,0.504-1.126,1.126c0,0,0,0,0,0.001v1.126c0,0.622,0.505,1.126,1.126,1.126
		c0.622,0,1.127-0.504,1.127-1.126v-1.126C460.494,455.247,459.99,454.742,459.367,454.742
		C459.368,454.742,459.368,454.742,459.367,454.742z"/>
	<path fill="#093E2E" d="M459.367,459.247c-0.621,0-1.126,0.504-1.126,1.126c0,0,0,0,0,0.001v1.126c0,0.622,0.505,1.126,1.126,1.126
		c0.622,0,1.127-0.504,1.127-1.126v-1.126C460.494,459.752,459.99,459.248,459.367,459.247
		C459.368,459.247,459.368,459.247,459.367,459.247z"/>
	<path fill="#093E2E" d="M459.367,445.733c-0.621,0-1.126,0.504-1.126,1.126l0,0v1.127c0,0.622,0.505,1.126,1.126,1.126
		c0.622,0,1.127-0.504,1.127-1.126v-1.127C460.494,446.238,459.99,445.733,459.367,445.733
		C459.368,445.733,459.368,445.733,459.367,445.733z"/>
	<path fill="#093E2E" d="M479.981,429.713c-0.003-0.931-0.376-1.822-1.036-2.479l-4.998-4.998c-0.477-0.478-1.246-0.488-1.736-0.025
		c-1.248,1.146-3.188,1.064-4.335-0.184c-1.076-1.172-1.078-2.971-0.006-4.146c0.473-0.485,0.466-1.26-0.015-1.737l-5.003-5.002
		c-1.367-1.372-3.585-1.38-4.963-0.019l-29.574,29.574h-7.902c-1.937,0.01-3.501,1.585-3.496,3.522v7.074
		c0,0.673,0.536,1.224,1.209,1.24c1.692,0.071,3.007,1.501,2.936,3.193c-0.067,1.597-1.349,2.874-2.944,2.937
		c-0.67,0.02-1.201,0.568-1.2,1.238v7.075c-0.005,1.937,1.56,3.513,3.496,3.521h52.479c1.937-0.009,3.501-1.585,3.496-3.521v-7.075
		c0-0.673-0.536-1.224-1.209-1.24c-1.692-0.071-3.007-1.5-2.936-3.192c0.066-1.593,1.343-2.869,2.936-2.936l0.009-0.001
		c0.67-0.021,1.202-0.569,1.2-1.24v-7.073c0.005-1.938-1.56-3.513-3.496-3.522h-2.43l8.501-8.502
		C479.623,431.54,479.99,430.645,479.981,429.713L479.981,429.713z M474.135,444.221v6.18c-2.871,0.654-4.668,3.513-4.014,6.385
		c0.455,1.998,2.016,3.559,4.014,4.015v6.179c0.007,0.693-0.55,1.261-1.243,1.269h-52.479c-0.693-0.008-1.249-0.575-1.243-1.269
		v-6.181c2.872-0.654,4.669-3.514,4.014-6.386c-0.456-1.997-2.016-3.558-4.014-4.013v-6.179c-0.006-0.694,0.55-1.262,1.243-1.27
		h37.828v0.528c0,0.623,0.505,1.127,1.126,1.127c0.622,0,1.127-0.504,1.127-1.127v-0.528h12.397
		C473.585,442.959,474.141,443.527,474.135,444.221L474.135,444.221z M477.37,430.605l-10.094,10.094h-35.775l17.622-17.622
		l0.375,0.375c0.439,0.439,1.152,0.439,1.593,0c0.439-0.44,0.439-1.153,0-1.593l-0.375-0.375l8.767-8.767
		c0.497-0.484,1.291-0.477,1.777,0.019l4.37,4.369c-1.568,2.492-0.818,5.784,1.674,7.352c1.735,1.092,3.942,1.092,5.678,0
		l4.37,4.371c0.24,0.237,0.376,0.561,0.378,0.898C477.732,430.055,477.603,430.371,477.37,430.605L477.37,430.605z"/>
	<path fill="#093E2E" d="M466.222,436.99c-0.44-0.44-1.153-0.44-1.593,0c-0.439,0.439-0.439,1.152,0,1.592l0.796,0.797
		c0.44,0.439,1.153,0.439,1.593,0c0.44-0.44,0.44-1.153,0-1.593L466.222,436.99z"/>
	<path fill="#093E2E" d="M453.48,424.247c-0.44-0.439-1.153-0.439-1.593,0c-0.44,0.439-0.44,1.152,0,1.593l0.796,0.796
		c0.44,0.439,1.153,0.439,1.593,0s0.439-1.152,0-1.593L453.48,424.247z"/>
	<path fill="#093E2E" d="M463.037,433.804c-0.44-0.439-1.153-0.439-1.593,0c-0.44,0.439-0.44,1.152,0,1.593l0.796,0.796
		c0.439,0.439,1.153,0.439,1.593,0s0.439-1.152,0-1.593L463.037,433.804z"/>
	<path fill="#093E2E" d="M459.85,430.618c-0.439-0.439-1.152-0.439-1.592,0c-0.44,0.44-0.44,1.153,0,1.593l0.796,0.796
		c0.439,0.44,1.152,0.44,1.593,0.001c0.439-0.44,0.439-1.153,0-1.593L459.85,430.618z"/>
	<path fill="#093E2E" d="M456.665,427.434c-0.439-0.44-1.152-0.44-1.593,0c-0.439,0.439-0.439,1.152,0,1.593l0.797,0.796
		c0.438,0.441,1.151,0.443,1.593,0.005s0.444-1.151,0.006-1.593c-0.002-0.001-0.004-0.003-0.006-0.005L456.665,427.434z"/>
	<path fill="#093E2E" d="M429.952,464.649c-0.622,0-1.126-0.505-1.125-1.126c0-0.281,0.104-0.552,0.294-0.759l14.469-15.847
		c0.418-0.46,1.13-0.494,1.59-0.075c0.46,0.418,0.494,1.13,0.076,1.59c-0.001,0.001-0.002,0.002-0.003,0.003l-14.469,15.847
		C430.571,464.516,430.269,464.65,429.952,464.649z"/>
	<path fill="#093E2E" d="M432.709,454.314c-2.144,0-3.882-1.738-3.882-3.882s1.738-3.882,3.882-3.882s3.882,1.738,3.882,3.882
		c0,0,0,0,0,0.001C436.588,452.575,434.851,454.312,432.709,454.314z M432.709,448.803c-0.899,0-1.629,0.729-1.629,1.629
		c0,0.899,0.729,1.63,1.629,1.63c0.899,0,1.629-0.729,1.629-1.629C434.337,449.532,433.608,448.804,432.709,448.803z"/>
	<path fill="#093E2E" d="M441.665,464.649c-2.145,0-3.883-1.738-3.883-3.882c0-2.145,1.738-3.883,3.883-3.883
		s3.883,1.738,3.883,3.883l0,0C445.545,462.909,443.808,464.647,441.665,464.649z M441.665,459.137c-0.9,0-1.63,0.729-1.63,1.63
		c0,0.899,0.729,1.63,1.63,1.63s1.63-0.73,1.63-1.63l0,0C443.294,459.866,442.564,459.138,441.665,459.137z"/>
</g>
</svg>
