<?xml version="1.0" encoding="utf-8"?>
<!-- Generator: Adobe Illustrator 16.0.0, SVG Export Plug-In . SVG Version: 6.00 Build 0)  -->
<!DOCTYPE svg PUBLIC "-//W3C//DTD SVG 1.1//EN" "http://www.w3.org/Graphics/SVG/1.1/DTD/svg11.dtd">
<svg version="1.1" id="svg3102" xmlns:svg="http://www.w3.org/2000/svg"
	 xmlns="http://www.w3.org/2000/svg" xmlns:xlink="http://www.w3.org/1999/xlink" x="0px" y="0px" width="36.525px"
	 height="36.518px" viewBox="0 0 36.525 36.518" enable-background="new 0 0 36.525 36.518" xml:space="preserve">
<g id="g3112">
	<g id="g3118" transform="translate(291.4297,501.8896)">
		
			<path id="path3120" fill="none" stroke="#093E2E" stroke-width="1.5" stroke-linecap="round" stroke-linejoin="round" stroke-miterlimit="10" d="
			M-270.645-501.139c8.267,0,14.99,6.725,14.99,14.991"/>
	</g>
	<g id="g3122" transform="translate(291.4297,441.7305)">
		
			<path id="path3124" fill="none" stroke="#093E2E" stroke-width="1.5" stroke-linecap="round" stroke-linejoin="round" stroke-miterlimit="10" d="
			M-270.645-436.697c5.904,0,10.707,4.805,10.707,10.709"/>
	</g>
	<g id="g3126" transform="translate(291.4297,381.5596)">
		
			<path id="path3128" fill="none" stroke="#093E2E" stroke-width="1.5" stroke-linecap="round" stroke-linejoin="round" stroke-miterlimit="10" d="
			M-270.645-372.242c3.543,0,6.425,2.882,6.425,6.425"/>
	</g>
	<g id="g3130" transform="translate(291.4297,321.4004)">
		
			<path id="path3132" fill="none" stroke="#093E2E" stroke-width="1.5" stroke-linecap="round" stroke-linejoin="round" stroke-miterlimit="10" d="
			M-270.645-307.802c1.184,0,2.142,0.959,2.142,2.144"/>
	</g>
	<g id="g3134" transform="translate(187.418,187.1963)">
		<path id="path3136" fill="#093E2E" d="M-174.038-164.043c0,0.394-0.318,0.713-0.712,0.713s-0.712-0.319-0.712-0.713
			c0-0.393,0.318-0.712,0.712-0.712S-174.038-164.435-174.038-164.043"/>
	</g>
	<g id="g3138" transform="translate(148.1973,221.3926)">
		
			<path id="path3140" fill="none" stroke="#093E2E" stroke-width="1.5" stroke-linecap="round" stroke-linejoin="round" stroke-miterlimit="10" d="
			M-137.608-200.673c-0.451-0.594-0.881-1.206-1.283-1.837c-0.528-0.83-0.369-1.929,0.326-2.624l2.418-2.416
			c0.52-0.521,0.52-1.363,0-1.884l-5.688-5.688c-0.521-0.521-1.363-0.521-1.884,0l-1.439,1.438
			c-2.337,2.336-2.968,5.901-1.501,8.861c2.609,5.268,7.979,13.342,18.322,18.414c2.97,1.456,6.551,0.838,8.889-1.499l1.474-1.474
			c0.521-0.52,0.521-1.362,0-1.884l-5.688-5.688c-0.519-0.521-1.363-0.521-1.883,0l-2.417,2.417
			c-0.696,0.694-1.793,0.854-2.623,0.326c-0.898-0.573-1.759-1.198-2.58-1.869"/>
	</g>
</g>
</svg>
