<?xml version="1.0" encoding="utf-8"?>
<!-- Generator: Adobe Illustrator 16.0.0, SVG Export Plug-In . SVG Version: 6.00 Build 0)  -->
<!DOCTYPE svg PUBLIC "-//W3C//DTD SVG 1.1//EN" "http://www.w3.org/Graphics/SVG/1.1/DTD/svg11.dtd">
<svg version="1.1" id="svg4038" xmlns:svg="http://www.w3.org/2000/svg"
	 xmlns="http://www.w3.org/2000/svg" xmlns:xlink="http://www.w3.org/1999/xlink" x="0px" y="0px" width="62.796px"
	 height="62.796px" viewBox="607.762 607.761 62.796 62.796" enable-background="new 607.762 607.761 62.796 62.796"
	 xml:space="preserve">
<g id="g4048">
	<g id="g4054" transform="translate(437.0875,422.7533)">
		
			<path id="path4056" fill="none" stroke="#093E2E" stroke-width="2" stroke-linecap="round" stroke-linejoin="round" stroke-miterlimit="10" d="
			M224.434,195.814c4.989,5.415,8.036,12.647,8.036,20.591c0,16.789-13.609,30.398-30.397,30.398
			c-16.789,0-30.398-13.609-30.398-30.398c0-16.788,13.609-30.397,30.398-30.397c1.254,0,2.491,0.076,3.706,0.224"/>
	</g>
	<g id="g4058" transform="translate(159.6039,409.242)">
		
			<path id="path4060" fill="none" stroke="#093E2E" stroke-width="2" stroke-linecap="round" stroke-linejoin="round" stroke-miterlimit="10" d="
			M467.652,210.994c8.636-5.442,20.186-4.403,27.708,3.119c8.729,8.729,8.729,22.88,0,31.608s-22.88,8.729-31.608,0
			c-7.533-7.533-8.565-19.106-3.095-27.746"/>
	</g>
	<g id="g4062" transform="translate(435.3333,386.1668)">
		
			<path id="path4064" fill="none" stroke="#093E2E" stroke-width="2" stroke-linecap="round" stroke-linejoin="round" stroke-miterlimit="10" d="
			M225.972,236.918v-4.692h4.692"/>
	</g>
	<g id="g4066" transform="translate(231.5501,256)">
		
			<path id="path4068" fill="none" stroke="#093E2E" stroke-width="2" stroke-linecap="round" stroke-linejoin="round" stroke-miterlimit="10" d="
			M404.591,383.159c0,1.667,1.352,3.019,3.019,3.019c1.668,0,3.02-1.352,3.02-3.019c0-1.668-1.352-3.02-3.02-3.02
			C405.942,380.14,404.591,381.491,404.591,383.159z"/>
	</g>
	<g id="g4070" transform="translate(398.3333,255.8374)">
		
			<path id="path4072" fill="none" stroke="#093E2E" stroke-width="2" stroke-linecap="round" stroke-linejoin="round" stroke-miterlimit="10" d="
			M258.402,383.342h-1.522"/>
	</g>
	<g id="g4074" transform="translate(113.6667,256.1626)">
		
			<path id="path4076" fill="none" stroke="#093E2E" stroke-width="2" stroke-linecap="round" stroke-linejoin="round" stroke-miterlimit="10" d="
			M507.917,382.976h1.522"/>
	</g>
	<g id="g4078" transform="translate(256.1626,398.3333)">
		
			<path id="path4080" fill="none" stroke="#093E2E" stroke-width="2" stroke-linecap="round" stroke-linejoin="round" stroke-miterlimit="10" d="
			M383.017,223.25v1.522"/>
	</g>
	<g id="g4082" transform="translate(255.8374,113.6667)">
		
			<path id="path4084" fill="none" stroke="#093E2E" stroke-width="2" stroke-linecap="round" stroke-linejoin="round" stroke-miterlimit="10" d="
			M383.302,543.068v-1.522"/>
	</g>
	<g id="g4086" transform="translate(238.7113,273.2887)">
		
			<path id="path4088" fill="none" stroke="#093E2E" stroke-width="2" stroke-linecap="round" stroke-linejoin="round" stroke-miterlimit="10" d="
			M398.313,363.735l-4.928-4.928"/>
	</g>
	<g id="g4090" transform="translate(273.2887,273.2887)">
		
			<path id="path4092" fill="none" stroke="#093E2E" stroke-width="2" stroke-linecap="round" stroke-linejoin="round" stroke-miterlimit="10" d="
			M368.006,363.735l9.187-9.187"/>
	</g>
	<g id="g4094" transform="translate(128.0137,383.9863)">
		
			<path id="path4096" fill="none" stroke="#093E2E" stroke-width="2" stroke-linecap="round" stroke-linejoin="round" stroke-miterlimit="10" d="
			M495.342,239.368L495.342,239.368"/>
	</g>
	<g id="g4098" transform="translate(325.2751,492.2863)">
		
			<path id="path4100" fill="none" stroke="#093E2E" stroke-width="2" stroke-linecap="round" stroke-linejoin="round" stroke-miterlimit="10" d="
			M322.439,117.695L322.439,117.695"/>
	</g>
</g>
</svg>
