<?xml version="1.0" encoding="utf-8"?>
<!-- Generator: Adobe Illustrator 16.0.0, SVG Export Plug-In . SVG Version: 6.00 Build 0)  -->
<!DOCTYPE svg PUBLIC "-//W3C//DTD SVG 1.1//EN" "http://www.w3.org/Graphics/SVG/1.1/DTD/svg11.dtd">
<svg version="1.1" id="Vrstva_1" xmlns="http://www.w3.org/2000/svg" xmlns:xlink="http://www.w3.org/1999/xlink" x="0px" y="0px"
	 width="60.091px" height="61.987px" viewBox="434.235 259.539 60.091 61.987"
	 enable-background="new 434.235 259.539 60.091 61.987" xml:space="preserve">
<g id="_04-pine">
	<path fill="#093E2E" d="M482.008,289.822c-0.379,0.379-0.379,0.991,0,1.37c3.528,3.529,7.921,7.922,7.13,13.026
		c-0.767,4.957-6.35,10.163-16.583,15.471c-0.474,0.246-0.66,0.83-0.414,1.307c0.245,0.476,0.831,0.66,1.306,0.414
		c10.969-5.688,16.729-11.215,17.607-16.895c0.939-6.077-3.838-10.854-7.677-14.693C483,289.443,482.385,289.443,482.008,289.822
		L482.008,289.822z"/>
	<path fill="#093E2E" d="M446.738,310.677c-0.229-0.483-0.805-0.691-1.29-0.464l0,0c-5.806,2.741-10.544,4.569-10.591,4.587
		c-0.5,0.192-0.749,0.753-0.557,1.253s0.754,0.749,1.253,0.556c0.048-0.018,4.845-1.871,10.726-4.643
		C446.761,311.737,446.967,311.158,446.738,310.677L446.738,310.677z"/>
	<path fill="#093E2E" d="M469.139,309.729c-2.996,1.721-6.094,3.259-9.275,4.607c-0.491,0.213-0.72,0.782-0.508,1.274
		c0.153,0.356,0.507,0.589,0.896,0.585c0.133,0,0.262-0.026,0.384-0.079c3.253-1.381,6.42-2.954,9.486-4.717
		c0.462-0.27,0.616-0.863,0.346-1.325c-0.27-0.462-0.863-0.617-1.326-0.346H469.139z"/>
	<path fill="#093E2E" d="M477.168,304.815c0.428,0.32,1.035,0.233,1.357-0.195l0,0c1.074-1.315,1.689-2.945,1.756-4.644
		c-0.032-1.579-0.63-3.094-1.684-4.271c-0.444-0.53-0.848-1.044-1.214-1.538c-0.317-0.431-0.925-0.522-1.355-0.203
		c-0.432,0.32-0.521,0.927-0.202,1.358c0.387,0.521,0.814,1.063,1.28,1.624c0.765,0.828,1.205,1.903,1.237,3.029
		c-0.07,1.28-0.551,2.504-1.372,3.491C476.656,303.895,476.743,304.495,477.168,304.815L477.168,304.815z"/>
	<path fill="#093E2E" d="M450.144,318.111c-2.727,0.956-4.541,1.506-4.555,1.511c-0.517,0.143-0.819,0.675-0.677,1.191
		c0.142,0.517,0.676,0.819,1.19,0.679c0.016-0.005,0.033-0.011,0.047-0.016c0.02-0.004,1.867-0.565,4.639-1.534
		c0.505-0.177,0.772-0.73,0.596-1.235s-0.73-0.771-1.236-0.596H450.144z"/>
	<path fill="#093E2E" d="M494.224,282.321l-3.18-6.351h0.371c0.535,0.002,0.969-0.434,0.97-0.967c0-0.171-0.045-0.339-0.13-0.487
		l-3.046-5.329h0.266c0.535,0.002,0.973-0.429,0.975-0.964c0.002-0.152-0.033-0.303-0.101-0.439l-3.877-7.752
		c-0.285-0.479-0.905-0.636-1.385-0.351c-0.143,0.085-0.265,0.206-0.351,0.351l-3.875,7.752c-0.24,0.479-0.046,1.061,0.434,1.301
		c0.132,0.065,0.279,0.102,0.428,0.103h0.267l-3.046,5.329c-0.265,0.458-0.109,1.045,0.348,1.313
		c-3.599,1.438-10.38,4.716-12.355,9.605c-0.856,2.101-0.727,4.475,0.353,6.471c0.798,1.594,0.098,3.572-2.067,5.887l-4.023-6.315
		h1.144c0.536,0,0.97-0.435,0.97-0.969c0-0.205-0.066-0.404-0.186-0.569l-6.634-9.122h1.003c0.537,0,0.971-0.434,0.971-0.969
		c0-0.185-0.053-0.365-0.152-0.52l-6.783-10.661c-0.324-0.453-0.956-0.556-1.407-0.229c-0.087,0.064-0.165,0.141-0.229,0.229
		l-6.783,10.661c-0.287,0.451-0.154,1.049,0.297,1.336c0.156,0.1,0.337,0.152,0.521,0.152h1.004l-6.634,9.122
		c-0.313,0.433-0.219,1.038,0.214,1.352c0.166,0.122,0.365,0.187,0.57,0.187h1.143l-5.837,9.17
		c-0.287,0.451-0.154,1.051,0.297,1.338c0.155,0.1,0.336,0.152,0.521,0.152h11.63v2.907c0,0.534,0.434,0.969,0.97,0.969h5.814
		c0.033,0,0.06-0.016,0.092-0.018c-1.658,0.923-3.439,1.863-5.367,2.82c-0.482,0.234-0.682,0.815-0.447,1.296
		c0.234,0.481,0.813,0.681,1.295,0.448c0.003-0.004,0.008-0.005,0.013-0.007c4.947-2.347,9.658-5.164,14.065-8.416h2.947
		c0.535,0,0.969-0.434,0.971-0.969c0-0.185-0.053-0.365-0.152-0.521l-0.74-1.162c3.052-3.118,3.973-5.956,2.728-8.439
		c-0.831-1.499-0.938-3.295-0.29-4.88c1.563-3.871,7.073-6.738,10.409-8.169l-1.564,3.128c-0.256-0.275-0.65-0.376-1.007-0.258
		c-1.818,0.679-3.25,2.113-3.924,3.933c-0.175,0.506,0.097,1.058,0.604,1.229l0,0c0.102,0.035,0.206,0.053,0.313,0.053
		c0.416,0,0.783-0.264,0.917-0.656c0.431-1.145,1.294-2.074,2.405-2.589c0.035,0.504,0.458,0.892,0.962,0.888h0.627
		c0.085,1.508,0.49,2.983,1.187,4.324c0.248,0.475,0.832,0.66,1.309,0.412c0.475-0.247,0.659-0.834,0.411-1.308
		c-0.555-1.064-0.884-2.231-0.969-3.429h2.281v1.938c0,0.535,0.434,0.969,0.969,0.969h3.876c0.535,0,0.969-0.434,0.969-0.969v-1.938
		h4.847c0.535,0.003,0.972-0.43,0.974-0.965C494.327,282.607,494.293,282.457,494.224,282.321L494.224,282.321z M452.65,304.074
		h-3.877v-1.938h3.877V304.074z M459.434,300.198c-0.534,0-0.969,0.434-0.969,0.97c0,0.535,0.435,0.969,0.969,0.969h0.553
		c-1.634,1.13-3.504,2.293-5.612,3.489c0.135-0.165,0.21-0.37,0.214-0.582v-2.907h1.938c0.535,0,0.969-0.434,0.969-0.969
		c0-0.536-0.434-0.97-0.969-0.97h-19.555l5.837-9.171c0.287-0.451,0.154-1.05-0.297-1.337c-0.155-0.101-0.338-0.153-0.521-0.153
		h-1.004l6.632-9.12c0.316-0.434,0.22-1.038-0.214-1.354c-0.164-0.119-0.365-0.184-0.569-0.184h-1.142l5.018-7.886l5.02,7.886
		h-1.143c-0.535-0.002-0.969,0.432-0.969,0.969c0,0.205,0.065,0.404,0.185,0.569l6.634,9.12h-1.004
		c-0.534,0-0.971,0.435-0.971,0.969c0,0.186,0.053,0.365,0.152,0.521l5.837,9.171H459.434z M486.568,284.693h-1.938v-0.97h1.938
		V284.693z M487.537,281.785h-8.122l3.18-6.351c0.239-0.478,0.046-1.061-0.435-1.301c-0.135-0.066-0.284-0.103-0.438-0.102h-0.269
		l3.047-5.329c0.269-0.464,0.11-1.058-0.354-1.324c-0.148-0.086-0.315-0.131-0.486-0.131h-0.37l2.309-4.616l2.309,4.616h-0.371
		c-0.534,0-0.97,0.433-0.971,0.968c0,0.171,0.045,0.338,0.131,0.487l3.046,5.329h-0.269c-0.534-0.003-0.971,0.43-0.973,0.965
		c0,0.151,0.034,0.302,0.102,0.438l3.18,6.351H487.537z"/>
</g>
</svg>
