<?xml version="1.0" encoding="utf-8"?>
<!-- Generator: Adobe Illustrator 16.0.0, SVG Export Plug-In . SVG Version: 6.00 Build 0)  -->
<!DOCTYPE svg PUBLIC "-//W3C//DTD SVG 1.1//EN" "http://www.w3.org/Graphics/SVG/1.1/DTD/svg11.dtd">
<svg version="1.1" id="Vrstva_1" xmlns="http://www.w3.org/2000/svg" xmlns:xlink="http://www.w3.org/1999/xlink" x="0px" y="0px"
	 width="60.049px" height="60.051px" viewBox="432.401 259.544 60.049 60.051"
	 enable-background="new 432.401 259.544 60.049 60.051" xml:space="preserve">
<g>
	<path fill="#093E2E" d="M483.656,268.338c-5.67-5.67-13.21-8.794-21.232-8.794c-8.019,0-15.558,3.124-21.229,8.794
		c-5.672,5.67-8.794,13.212-8.794,21.23c0,8.021,3.122,15.56,8.794,21.232c5.671,5.67,13.21,8.794,21.229,8.794
		c8.022,0,15.563-3.124,21.232-8.794c5.672-5.67,8.794-13.212,8.794-21.232C492.45,281.55,489.328,274.011,483.656,268.338z
		 M482.329,309.474c-5.316,5.316-12.385,8.243-19.905,8.243c-7.517,0-14.585-2.927-19.901-8.243
		c-5.318-5.316-8.245-12.387-8.245-19.905c0-7.517,2.927-14.587,8.245-19.903c5.316-5.316,12.385-8.243,19.901-8.243
		c7.521,0,14.589,2.927,19.905,8.243c5.318,5.316,8.245,12.387,8.245,19.903C490.574,297.087,487.647,304.157,482.329,309.474z"/>
	<path fill="#093E2E" d="M438.031,289.568c0-13.449,10.943-24.395,24.393-24.395c4.854,0,9.541,1.421,13.556,4.106
		c0.429,0.289,1.011,0.173,1.3-0.256c0.289-0.431,0.174-1.013-0.258-1.302c-4.325-2.896-9.372-4.425-14.598-4.425
		c-7.016,0-13.613,2.733-18.576,7.695c-4.961,4.962-7.694,11.558-7.694,18.575c0,6.475,2.376,12.694,6.688,17.514
		c0.187,0.208,0.442,0.313,0.701,0.313c0.223,0,0.445-0.078,0.625-0.236c0.387-0.347,0.42-0.94,0.073-1.327
		C440.236,301.357,438.031,295.581,438.031,289.568z"/>
	<path fill="#093E2E" d="M484.271,274.973c-0.286-0.432-0.869-0.545-1.3-0.259c-0.431,0.289-0.547,0.872-0.258,1.303
		c2.688,4.015,4.106,8.701,4.106,13.552c0,13.451-10.943,24.396-24.396,24.396c-5.579,0-11.034-1.933-15.358-5.443
		c-0.403-0.326-0.992-0.265-1.319,0.139c-0.328,0.401-0.266,0.994,0.138,1.318c4.655,3.78,10.531,5.862,16.54,5.862
		c7.019,0,13.617-2.733,18.58-7.695c4.961-4.962,7.694-11.558,7.694-18.577C488.698,284.344,487.169,279.297,484.271,274.973z"/>
	<path fill="#093E2E" d="M478.689,271.384c0.63,0.566,1.239,1.17,1.807,1.796c0.186,0.206,0.441,0.308,0.693,0.308
		c0.227,0,0.453-0.08,0.633-0.242c0.382-0.348,0.413-0.942,0.064-1.325c-0.614-0.676-1.268-1.325-1.947-1.933
		c-0.386-0.347-0.978-0.313-1.323,0.073C478.27,270.445,478.301,271.038,478.689,271.384z"/>
	<path fill="#093E2E" d="M462.424,271.741c0.52,0,0.94-0.419,0.94-0.938v-2.813c0-0.52-0.421-0.94-0.94-0.94
		c-0.516,0-0.938,0.421-0.938,0.94v2.813C461.486,271.322,461.908,271.741,462.424,271.741z"/>
	<path fill="#093E2E" d="M461.486,308.335v2.813c0,0.52,0.422,0.94,0.938,0.94c0.52,0,0.94-0.421,0.94-0.94v-2.813
		c0-0.519-0.421-0.938-0.94-0.938C461.908,307.397,461.486,307.816,461.486,308.335z"/>
	<path fill="#093E2E" d="M444.599,289.568c0-0.518-0.421-0.937-0.937-0.937h-2.816c-0.52,0-0.938,0.419-0.938,0.937
		c0,0.52,0.419,0.938,0.938,0.938h2.816C444.178,290.507,444.599,290.088,444.599,289.568z"/>
	<path fill="#093E2E" d="M480.252,289.568c0,0.52,0.422,0.938,0.938,0.938h2.816c0.52,0,0.938-0.419,0.938-0.938
		c0-0.518-0.419-0.937-0.938-0.937h-2.816C480.674,288.632,480.252,289.051,480.252,289.568z"/>
	<path fill="#093E2E" d="M453.854,272.848l-1.406-2.438c-0.26-0.447-0.834-0.602-1.281-0.344c-0.449,0.262-0.604,0.834-0.344,1.281
		l1.407,2.44c0.174,0.301,0.488,0.469,0.813,0.469c0.161,0,0.322-0.04,0.469-0.126C453.962,273.871,454.114,273.297,453.854,272.848
		z"/>
	<path fill="#093E2E" d="M472.621,305.351c-0.259-0.447-0.834-0.601-1.281-0.343c-0.45,0.26-0.604,0.834-0.344,1.281l1.407,2.439
		c0.173,0.3,0.489,0.469,0.815,0.469c0.158,0,0.318-0.04,0.466-0.125c0.449-0.262,0.604-0.834,0.344-1.281L472.621,305.351z"/>
	<path fill="#093E2E" d="M443.737,301.298c0.158,0,0.32-0.04,0.469-0.125l2.438-1.409c0.449-0.259,0.601-0.831,0.343-1.282
		c-0.258-0.447-0.834-0.602-1.281-0.343l-2.438,1.409c-0.449,0.258-0.604,0.832-0.343,1.281
		C443.098,301.131,443.413,301.298,443.737,301.298z"/>
	<path fill="#093E2E" d="M478.677,281.126c0.162,0,0.322-0.04,0.47-0.126l2.437-1.409c0.45-0.258,0.604-0.832,0.344-1.281
		c-0.259-0.447-0.831-0.602-1.282-0.344l-2.437,1.407c-0.45,0.261-0.601,0.833-0.343,1.284
		C478.038,280.957,478.353,281.126,478.677,281.126z"/>
	<path fill="#093E2E" d="M473.685,270.066c-0.447-0.258-1.021-0.104-1.281,0.344l-1.407,2.438c-0.261,0.449-0.106,1.023,0.344,1.283
		c0.146,0.086,0.307,0.126,0.469,0.126c0.324,0,0.639-0.168,0.813-0.469l1.407-2.44C474.288,270.9,474.134,270.328,473.685,270.066z
		"/>
	<path fill="#093E2E" d="M453.512,305.008c-0.447-0.258-1.023-0.104-1.281,0.343l-1.407,2.44c-0.26,0.447-0.105,1.02,0.344,1.281
		c0.147,0.085,0.308,0.125,0.466,0.125c0.325,0,0.641-0.169,0.815-0.469l1.406-2.439
		C454.114,305.842,453.962,305.268,453.512,305.008z"/>
	<path fill="#093E2E" d="M478.208,299.764l2.437,1.409c0.147,0.085,0.312,0.125,0.47,0.125c0.324,0,0.64-0.167,0.813-0.469
		c0.261-0.449,0.106-1.023-0.344-1.281l-2.437-1.409c-0.447-0.259-1.023-0.104-1.281,0.343
		C477.607,298.933,477.758,299.505,478.208,299.764z"/>
	<path fill="#093E2E" d="M446.644,279.373l-2.438-1.407c-0.45-0.258-1.023-0.104-1.281,0.344c-0.261,0.449-0.106,1.023,0.343,1.281
		l2.438,1.409c0.147,0.086,0.308,0.126,0.47,0.126c0.324,0,0.639-0.169,0.812-0.469
		C447.244,280.206,447.093,279.634,446.644,279.373z"/>
	<path fill="#093E2E" d="M468.957,301.819c0.158,0,0.322-0.04,0.469-0.125c0.448-0.259,0.602-0.834,0.344-1.281l-5.206-9.019
		c0.421-0.489,0.677-1.129,0.677-1.826c0-1.221-0.784-2.266-1.876-2.652v-12.358c0-0.519-0.421-0.94-0.94-0.94
		c-0.516,0-0.938,0.422-0.938,0.94v12.358c-1.092,0.387-1.875,1.432-1.875,2.652c0,1.552,1.263,2.814,2.813,2.814
		c0.179,0,0.349-0.017,0.518-0.047l5.203,9.014C468.318,301.651,468.633,301.819,468.957,301.819z M461.486,289.568
		c0-0.516,0.422-0.937,0.938-0.937c0.52,0,0.94,0.421,0.94,0.937c0,0.518-0.421,0.938-0.94,0.938
		C461.908,290.507,461.486,290.086,461.486,289.568z"/>
</g>
</svg>
