<?xml version="1.0" encoding="utf-8"?>
<!-- Generator: Adobe Illustrator 16.0.0, SVG Export Plug-In . SVG Version: 6.00 Build 0)  -->
<!DOCTYPE svg PUBLIC "-//W3C//DTD SVG 1.1//EN" "http://www.w3.org/Graphics/SVG/1.1/DTD/svg11.dtd">
<svg version="1.1" id="Vrstva_1" xmlns="http://www.w3.org/2000/svg" xmlns:xlink="http://www.w3.org/1999/xlink" x="0px" y="0px"
	 width="60.064px" height="62.27px" viewBox="441.183 260.941 60.064 62.27" enable-background="new 441.183 260.941 60.064 62.27"
	 xml:space="preserve">
<g>
	<path fill="#093E2E" d="M500.518,309.58c0.926-5.881,0.972-12.438,0.131-18.466c-0.129-0.915-0.276-1.806-0.442-2.679
		c-0.003-0.024-0.008-0.051-0.013-0.075c-0.873-4.588-2.252-8.583-4.119-11.904c-0.016-0.027-0.032-0.054-0.049-0.081
		c-0.006-0.009-0.013-0.02-0.019-0.029c-2.291-3.73-5.325-6.877-9.017-9.351c-3.432-2.299-7.365-3.978-11.692-4.988
		c-6.499-1.518-14.232-1.408-20.683,0.293c-0.651,0.171-1.039,0.837-0.867,1.488c0.172,0.648,0.838,1.037,1.487,0.864
		c1.446-0.379,2.96-0.676,4.51-0.886c8.146,1.623,15.426,4.852,21.063,9.344c4.303,3.43,7.341,7.448,8.595,11.29l-16.588-5.101
		c-3.578-1.101-6.704-0.245-8.572,2.347c-2.314,3.213-2.048,8.271,0.636,12.029c5.689,7.969,12.106,11.905,32.275,19.647
		c-0.205,0.699-0.42,1.353-0.62,1.842c-0.483,0.903-4.157,4.788-6.731,5.509c-0.502,0.141-0.878,0.135-1.121-0.016
		c-0.031-0.021-0.064-0.04-0.099-0.056l-5.063-2.532h-0.001l0,0l-10.936-5.471l-0.001-0.001
		c-2.959-1.478-10.009-6.414-16.423-12.759c-5.267-5.21-11.538-12.792-11.619-19.41c0.527-2.402,1.336-4.438,2.445-6.156
		c0.273-0.426,0.257-0.976-0.043-1.383l-2.746-3.724c1.036-0.569,2.106-1.113,3.337-1.702c0.606-0.291,0.861-1.019,0.572-1.624
		c-0.29-0.606-1.018-0.863-1.623-0.571c-1.762,0.842-3.21,1.601-4.692,2.459c-0.301,0.175-0.511,0.467-0.582,0.806
		c-0.07,0.338,0.007,0.691,0.212,0.971l3.077,4.171c-1.059,1.829-1.839,3.928-2.359,6.339c-0.006,0.022-0.011,0.047-0.016,0.073
		c-0.278,1.311-0.482,2.713-0.61,4.218c-0.397,4.718,0.005,9.74,0.331,13.776c0.003,0.056,0.013,0.11,0.023,0.164
		c0.145,1.105,0.821,2.088,1.806,2.614c-0.206,0.901-0.161,1.847,0.139,2.75c0.434,1.298,1.342,2.35,2.561,2.958l30.832,15.421
		c0.731,0.366,1.51,0.539,2.279,0.539c1.482,0,2.921-0.65,3.902-1.804l4.063,2.032c0.507,0.303,1.078,0.454,1.709,0.454
		c0.422,0,0.87-0.067,1.341-0.203c3.416-0.981,7.612-5.514,8.236-6.799c0.01-0.021,0.02-0.041,0.028-0.062
		c0.354-0.843,0.724-2.062,1.035-3.246c0.001-0.004,0.001-0.008,0.004-0.01C500.157,311.528,500.436,310.217,500.518,309.58z
		 M454.448,301.571c1.528,1.512,3.096,2.947,4.643,4.282l-13.372-6.688h-0.002v-0.001l-0.876-0.438
		c-0.325-0.162-0.536-0.478-0.564-0.841c-0.003-0.045-0.01-0.089-0.019-0.131c-0.249-3.106-0.539-6.793-0.463-10.408
		C446.146,292.609,450.557,297.721,454.448,301.571z M478.293,319.813l-30.834-15.422c-0.637-0.317-1.112-0.868-1.338-1.549
		c-0.09-0.271-0.135-0.547-0.139-0.822l35.095,17.552C480.293,320.147,479.221,320.275,478.293,319.813z M482.325,271.206
		c-4.103-3.27-9.016-5.899-14.472-7.775c2.372,0.122,4.704,0.436,6.89,0.946c5.891,1.377,14,4.791,19.188,13.241
		c0.007,0.011,0.013,0.021,0.019,0.031c0.012,0.022,0.026,0.045,0.041,0.067c1.451,2.6,2.587,5.662,3.397,9.139l-5.235-1.61
		C491.111,280.407,487.65,275.45,482.325,271.206z M466.86,292.261c-2.062-2.886-2.338-6.839-0.642-9.19
		c1.236-1.717,3.325-2.229,5.881-1.444l3.806,1.171l-2.414,16.408C470.791,297.137,468.771,294.938,466.86,292.261z M475.721,300.78
		l2.539-17.258l19.682,6.052c0.106,0.613,0.206,1.239,0.295,1.876c0.81,5.803,0.766,12.113-0.126,17.768
		c-0.001,0.013-0.004,0.025-0.005,0.036c-0.045,0.355-0.166,0.974-0.333,1.697C487.113,306.854,480.446,303.871,475.721,300.78z"/>
	<path fill="#093E2E" d="M450.084,266.237c0.142,0,0.286-0.025,0.426-0.077l0.027-0.011c0.628-0.239,0.945-0.941,0.707-1.569
		c-0.239-0.628-0.941-0.946-1.57-0.708c-0.001,0-0.014,0.006-0.016,0.007c-0.63,0.236-0.948,0.936-0.713,1.565
		C449.126,265.935,449.592,266.237,450.084,266.237z"/>
	<path fill="#093E2E" d="M449.094,269.334c-0.399-0.541-1.162-0.656-1.703-0.258c-0.541,0.399-0.657,1.161-0.258,1.701l1.781,2.417
		c0.239,0.323,0.607,0.495,0.981,0.495c0.251,0,0.505-0.078,0.721-0.238c0.541-0.399,0.657-1.161,0.258-1.702L449.094,269.334z"/>
	<path fill="#093E2E" d="M451.51,269.168l1.781,2.416c0.239,0.324,0.606,0.495,0.981,0.495c0.25,0,0.503-0.078,0.721-0.237
		c0.541-0.399,0.657-1.162,0.258-1.703l-1.781-2.416c-0.398-0.539-1.162-0.655-1.702-0.256
		C451.227,267.866,451.111,268.627,451.51,269.168z"/>
	<path fill="#093E2E" d="M481.182,315.184c0.175,0.087,0.359,0.128,0.542,0.128c0.445,0,0.878-0.247,1.089-0.675
		c0.301-0.603,0.056-1.332-0.547-1.632l-0.024-0.014c-0.603-0.299-1.334-0.054-1.633,0.549c-0.299,0.601-0.054,1.332,0.547,1.631
		L481.182,315.184z"/>
	<path fill="#093E2E" d="M488.774,318.981c0.174,0.088,0.361,0.13,0.544,0.13c0.447,0,0.876-0.247,1.09-0.674
		c0.301-0.602,0.058-1.332-0.545-1.634l-4.468-2.233c-0.602-0.302-1.331-0.058-1.633,0.544c-0.3,0.602-0.056,1.333,0.543,1.635
		L488.774,318.981z"/>
</g>
</svg>
