<?xml version="1.0" encoding="utf-8"?>
<!-- Generator: Adobe Illustrator 16.0.0, SVG Export Plug-In . SVG Version: 6.00 Build 0)  -->
<!DOCTYPE svg PUBLIC "-//W3C//DTD SVG 1.1//EN" "http://www.w3.org/Graphics/SVG/1.1/DTD/svg11.dtd">
<svg version="1.1" id="Vrstva_1" xmlns="http://www.w3.org/2000/svg" xmlns:xlink="http://www.w3.org/1999/xlink" x="0px" y="0px"
	 width="95.871px" height="60.124px" viewBox="416.133 260.97 95.871 60.124" enable-background="new 416.133 260.97 95.871 60.124"
	 xml:space="preserve">
<path fill="#093E2E" d="M507.004,290.595c-1.622-1.248-3.409-2.191-5.304-2.816c1.639-0.385,3.333-0.699,4.89-0.922
	c1.908-0.271,3.116-2.199,2.52-4.037c-2.042-6.292-2.601-9.079-5.649-12.577l-7.171-8.227c-0.979-1.124-2.614-1.374-3.885-0.594
	l-2.239,1.375c-1.279,0.785-1.798,2.412-1.208,3.785c0.583,1.356,1.398,3.858,0.783,6.209l-0.399-1.224
	c-0.271-0.831-0.819-1.554-1.545-2.039l-4.74-3.162c-1.792-1.195-4.222-0.71-5.419,1.082c-1.197,1.795-0.714,4.22,1.082,5.418
	l2.889,1.926c-0.093-0.01-0.188-0.021-0.281-0.027c-6.344-4.168-10.299-4.878-12.77-5.486c-6.031-1.485-11.735-2.889-19.049,6.663
	c-2.156-0.343-8.268-1.514-12.342-4.303c-1.923-1.316-4.385-1.274-6.201-0.026l-2.771-2.579c-2.278-2.117-4.501-1.795-7.629-1.795
	c-2.382,0-3.685,2.773-2.17,4.607l6.111,7.398c1.448,1.752,3.741,2.677,6.052,2.373l8.673,7.154c1.636,1.35,3.677,1.984,5.723,1.854
	l4.746-0.299l1.225,1.808l-5.69,2.717c-3.072-3.959-7.787-6.291-12.841-6.291c-8.965,0-16.26,7.294-16.26,16.261
	c0,8.965,7.295,16.259,16.26,16.259c8.229,0,15.075-6.113,16.118-14.137l0.058-0.003l5.67,8.145
	c0.437,0.627,1.154,1.001,1.918,1.001h9.484c0.775,0,1.403-0.629,1.403-1.403c0-0.777-0.628-1.405-1.403-1.405h-9.237l-5.385-7.733
	h7.501c3.687,4.423,10.852,2.371,11.722-3.245c3.194,1.809,7.052,2.937,10.769,2.819c-0.643,2.604-1.173,5.497-1.507,8.159h-7.309
	c-0.775,0-1.404,0.629-1.404,1.405c0,0.774,0.628,1.403,1.404,1.403h7.727c1.184,0,2.181-0.886,2.32-2.063
	c0.005-0.043,0.012-0.087,0.017-0.13c1.021,1.513,2.291,2.861,3.757,3.958c10.659,7.97,25.989,0.347,25.989-13.03
	c0-4.219-1.622-8.217-4.5-11.228C508.155,292.604,507.922,291.302,507.004,290.595z M461.387,291.679l1.734-3.642
	c0.745-1.561,2.003-2.854,3.543-3.639c1.146-0.585,13.12-6.726,14.163-6.826c0.784-0.075,1.593,0.331,2.238,0.783
	c-1.779,0.776-12.309,5.597-14.595,7.444c-1.903,1.537-3.285,3.571-4.028,5.827C463.423,291.474,462.351,291.501,461.387,291.679z
	 M449.595,285.165c1.976-0.396,1.301-0.262,4.751-0.956l4.902,5.429c-0.613,1.289-1.219,2.558-1.823,3.827
	c-0.486,0.378-0.988,0.867-1.341,1.278C454.275,292.073,451.684,288.247,449.595,285.165z M486.17,280.08
	C486.17,280.08,486.171,280.08,486.17,280.08c5.828-2.441,7.738-7.271,5.959-13.006l3.79,5.596c0.935,1.383,2.424,2.269,4.085,2.431
	l3.584,0.352c0.627,1.267,0.833,2.021,1.513,4.116c-3.104,0.29-5.336,1.852-5.336,3.857c0,0.648,0.223,1.245,0.63,1.771
	c-4.27,1.058-9.083,2.827-12.356,5.737c-2.383-2.961-6.322-5.537-10.925-6.691C479.982,282.827,483.277,281.284,486.17,280.08z
	 M494.172,263.861c8.206,9.414,7.062,8.09,7.462,8.578c-1.36-0.134-2.532-0.077-3.391-1.344l-4.765-7.037l0.396-0.242
	C493.97,263.757,494.095,263.773,494.172,263.861z M506.193,284.077c-0.532,0.074-1.112,0.166-1.727,0.271
	c-1.227-0.267-1.784-0.735-1.885-0.923c0.163-0.32,1.355-1.059,3.416-1.095l0.439,1.354
	C506.496,283.864,506.38,284.05,506.193,284.077z M492.313,296.818c-0.471-1.443-0.168-0.513-1.48-4.538
	c0.575-0.426,1.212-0.836,1.909-1.228c0.93,2.848,3.585,10.991,4.38,13.428c0.187,0.575-0.126,1.194-0.704,1.384
	c-0.585,0.189-1.197-0.132-1.384-0.704L492.313,296.818z M496.898,294.74l-1.603-4.915l0.29-0.126
	c2.99-0.108,6.088,0.683,8.807,2.479L496.898,294.74z M484.853,273.942c-0.098-0.299-0.293-0.558-0.557-0.732l-4.019-2.681
	c-0.505-0.337-0.64-1.019-0.304-1.522c0.337-0.504,1.02-0.64,1.522-0.304l4.74,3.163c0.204,0.135,0.358,0.339,0.435,0.572
	l1.117,3.426c-0.559,0.485-1.182,0.886-1.846,1.226c-0.03-0.027-0.059-0.055-0.091-0.084L484.853,273.942z M467.884,272.005
	c2.423,0.598,4.759,0.916,9.768,3.803c-3.216,1.496-9.099,4.476-12.263,6.089c-2.09,1.064-3.795,2.816-4.803,4.934l-0.031,0.063
	l-8.604-9.523C458.021,269.574,462.19,270.604,467.884,272.005z M435.58,273.957c4.84,3.313,11.862,4.527,13.854,4.815
	c0.962,1.065,0.308,0.34,2.721,3.013l-5.183,1.042c-1.268,0.256-2.563-0.068-3.562-0.889l-10.157-8.349
	C434.01,273.357,434.868,273.47,435.58,273.957z M426.672,277.455l-6.115-7.395c0-0.005,0.004-0.013-0.001-0.014h0.01
	c3.108,0,4.339-0.237,5.715,1.042c4.832,4.495,2.646,2.579,7.518,6.584c-2.048,0.691-1.468,0.496-3.239,1.095
	C429.129,279.101,427.608,278.588,426.672,277.455z M441.019,286.604l-7.229-5.963c0.968-0.327,0.381-0.129,2.563-0.866l5.274,4.334
	c1.363,1.12,3.122,1.714,4.943,1.6c0.92,1.357,0.639,0.943,1.301,1.919C444.83,287.819,443.001,288.24,441.019,286.604z
	 M430.493,301.889c-1.066,0.508-1.755,1.6-1.755,2.779c0,1.753,1.47,3.163,3.23,3.078l7.514-0.365
	c-1.055,2.928-3.857,4.977-7.09,4.977c-4.155,0-7.536-3.382-7.536-7.537c0-6.197,7.134-9.768,12.083-6.01L430.493,301.889z
	 M445.655,307.081c-1.076,6.388-6.628,11.189-13.263,11.189c-7.417,0-13.451-6.033-13.451-13.45c0-7.418,6.034-13.452,13.451-13.452
	c3.973,0,7.693,1.741,10.235,4.727l-2.931,1.399c-6.451-6.447-17.65-1.904-17.65,7.326c0,5.704,4.642,10.346,10.346,10.346
	c4.831,0,8.963-3.333,10.061-7.929C443.748,307.174,443.055,307.207,445.655,307.081z M450.116,302.733
	c-0.961,0-1.793,0.583-2.151,1.424l-16.132,0.784c-0.155,0.009-0.285-0.117-0.285-0.273c0-0.104,0.061-0.2,0.153-0.244
	c0.486-0.231,20.172-9.63,20.815-9.938c1.025,1.512,0.761,1.122,1.974,2.911c-0.673,1.718-0.789,3.623-0.409,5.336H450.116z
	 M456.992,302.733c-1.445-4.381,2.142-8.931,6.872-8.347c-0.035,0.354-0.059,0.827-0.059,1.203c0,0.917,0.536,1.753,1.376,2.129
	c0.004,0.003,0.01,0.006,0.016,0.008c1.622,0.712,2.571,2.474,2.254,4.237c-0.55,3.047-4.503,4.472-6.917,1.609
	c-0.45-0.532-1.094-0.84-1.787-0.84H456.992z M469.791,298.666c-0.637-1.501-1.827-2.72-3.172-3.374
	c0.062-2.032,0.758-4.01,1.978-5.617c1.433-1.892,2.987-2.616,4.154-3.224c4.986,0.116,10.54,2.79,13.36,6.574
	c-1.984,2.624-3.364,6.082-4.317,9.23C477.695,302.665,473.061,301.084,469.791,298.666z M495.743,318.271
	c-5.81,0-10.887-3.65-12.739-9.121c0.896-4.681,2.614-11.02,5.576-14.721l0.743,2.278c-7.643,6.032-3.377,18.459,6.42,18.459
	c4.032,0,7.725-2.37,9.407-6.039c0.323-0.705,0.013-1.539-0.69-1.862c-0.706-0.323-1.54-0.015-1.863,0.69
	c-1.226,2.674-3.916,4.402-6.854,4.402c-4.156,0-7.537-3.382-7.537-7.537c0-1.966,0.752-3.807,2.07-5.189l2.088,6.4
	c0.672,2.063,2.877,3.17,4.925,2.503c2.053-0.67,3.172-2.873,2.503-4.926l-1.967-6.027c2.368,0.68,4.277,2.486,5.068,4.851
	c0.246,0.736,1.041,1.134,1.776,0.888c0.735-0.247,1.133-1.042,0.887-1.777c-0.748-2.242-2.23-4.12-4.146-5.376l3.493-1.193
	C513.775,303.222,507.977,318.271,495.743,318.271z"/>
</svg>
