<?xml version="1.0" encoding="utf-8"?>
<!-- Generator: Adobe Illustrator 16.0.0, SVG Export Plug-In . SVG Version: 6.00 Build 0)  -->
<!DOCTYPE svg PUBLIC "-//W3C//DTD SVG 1.1//EN" "http://www.w3.org/Graphics/SVG/1.1/DTD/svg11.dtd">
<svg version="1.1" id="Vrstva_1" xmlns="http://www.w3.org/2000/svg" xmlns:xlink="http://www.w3.org/1999/xlink" x="0px" y="0px"
	 width="76.417px" height="60.833px" viewBox="-1.915 -0.487 76.417 60.833" enable-background="new -1.915 -0.487 76.417 60.833"
	 xml:space="preserve">
<g id="Vrstva_1_1_">
</g>
<g>
	<g>
		<path fill="#093E2E" stroke="#093E2E" stroke-width="0.5" stroke-miterlimit="10" d="M22.103,7.989
			c0-0.504-0.41-0.914-0.914-0.914c-8.568,0-15.541,6.971-15.541,15.54c0,8.569,6.971,15.54,15.541,15.54
			c0.504,0,0.914-0.41,0.914-0.914s-0.41-0.914-0.914-0.914c-7.561,0-13.712-6.15-13.712-13.711S13.628,8.903,21.188,8.903
			C21.692,8.903,22.103,8.493,22.103,7.989z"/>
		<path fill="#093E2E" stroke="#093E2E" stroke-width="0.5" stroke-miterlimit="10" d="M57.752,58.266h-3.656V48.129
			c2.59-0.438,4.57-2.691,4.57-5.404c0-3.023-2.459-5.484-5.484-5.484s-5.484,2.461-5.484,5.484c0,2.713,1.98,4.967,4.57,5.404
			v10.137h-9.141v-2.742c0-1.512-1.23-2.742-2.742-2.742h-3.658c-1.512,0-2.742,1.23-2.742,2.742v2.742H23.7
			c3.907-3.422,12.672-11.873,17.337-22.484c0.205-0.463-0.006-1.002-0.469-1.205s-1,0.006-1.203,0.469
			C34.261,46.657,23.736,55.879,21.188,58c-3.4-2.836-21.025-18.359-21.025-35.384c0-11.594,9.433-21.025,21.025-21.025
			c8.895,0,16.855,5.633,19.814,14.018c0.17,0.476,0.691,0.728,1.168,0.558c0.477-0.168,0.727-0.69,0.559-1.167
			C39.512,5.886,30.854-0.237,21.188-0.237c-12.602,0-22.854,10.252-22.854,22.854c0,16.391,14.877,30.885,20.336,35.651H9.304
			v-2.742c0-1.514-1.23-2.744-2.742-2.744H2.905c-1.512,0-2.742,1.23-2.742,2.744v2.742h-0.914c-0.504,0-0.914,0.408-0.914,0.914
			c0,0.504,0.41,0.914,0.914,0.914h58.503c0.506,0,0.914-0.41,0.914-0.914C58.667,58.676,58.258,58.266,57.752,58.266z
			 M49.526,42.725c0-2.016,1.641-3.654,3.656-3.654s3.656,1.639,3.656,3.654c0,2.018-1.639,3.658-3.656,3.658
			S49.526,44.743,49.526,42.725z M35.814,55.524c0-0.504,0.41-0.914,0.914-0.914h3.657c0.506,0,0.914,0.41,0.914,0.914v2.742h-5.485
			V55.524z M1.991,55.524c0-0.504,0.411-0.914,0.914-0.914h3.656c0.504,0,0.914,0.41,0.914,0.914v2.742H1.991V55.524L1.991,55.524z"
			/>
	</g>
	<g id="layer1" transform="translate(0 -288.533)">
		<g>
			<path id="circle8913" fill="none" stroke="#093E2E" stroke-width="2" stroke-linecap="round" stroke-linejoin="round" d="
				M37.919,320.01c0,4.367-3.541,7.906-7.908,7.906s-7.908-3.539-7.908-7.906c0-4.37,3.541-7.908,7.908-7.908
				C34.378,312.101,37.919,315.64,37.919,320.01z"/>
			<path id="path8915" fill="none" stroke="#093E2E" stroke-width="2" stroke-linejoin="round" d="M60.268,302.712l-1.984-1.979
				v-2.794c0-1.252,1.461-1.94,2.432-1.146l6.178,5.06c2.789,2.282,2.912,6.495,0.264,8.938l-14.82,13.666h-9.914v-4.447
				c0-6.824-5.548-12.356-12.392-12.356h-1.982l-4.461-7.907l10.021,3.329c0.249,0.083,0.455,0.263,0.572,0.496l0.139,0.278
				c0.421,0.838,1.216,1.429,2.14,1.592l5.853,1.029c0.711,0.126,1.443-0.014,2.063-0.389l3.068-1.871
				c3.008-1.832,6.785-1.832,9.793,0l4.027,2.455"/>
			<path id="path8917" fill="none" stroke="#093E2E" stroke-width="2" stroke-linecap="round" stroke-linejoin="round" d="
				M69.749,313.279c2.844,1.755,4.275,5.108,3.58,8.377c-0.693,3.27-3.371,5.746-6.684,6.188c-3.313,0.445-6.547-1.242-8.078-4.211"
				/>
		</g>
		<path id="circle8919" fill="#093E2E" d="M66.442,320.01c0,0.547-0.445,0.988-0.988,0.988l0,0c-0.549,0-0.99-0.441-0.99-0.988l0,0
			c0-0.547,0.441-0.988,0.99-0.988l0,0C65.997,319.022,66.442,319.463,66.442,320.01L66.442,320.01z"/>
		<path id="circle8921" fill="#093E2E" d="M31.143,320.01c0,0.547-0.442,0.988-0.987,0.988l0,0c-0.548,0-0.99-0.441-0.99-0.988l0,0
			c0-0.547,0.442-0.988,0.99-0.988l0,0C30.7,319.022,31.143,319.463,31.143,320.01L31.143,320.01z"/>
	</g>
</g>
</svg>
