<?xml version="1.0" encoding="utf-8"?>
<!-- Generator: Adobe Illustrator 16.0.0, SVG Export Plug-In . SVG Version: 6.00 Build 0)  -->
<!DOCTYPE svg PUBLIC "-//W3C//DTD SVG 1.1//EN" "http://www.w3.org/Graphics/SVG/1.1/DTD/svg11.dtd">
<svg version="1.1" id="Vrstva_1" xmlns="http://www.w3.org/2000/svg" xmlns:xlink="http://www.w3.org/1999/xlink" x="0px" y="0px"
	 width="60.051px" height="60.049px" viewBox="-2.127 1.86 60.051 60.049" enable-background="new -2.127 1.86 60.051 60.049"
	 xml:space="preserve">
<g>
	<path fill="#093E2E" d="M14.026,13.497l1.441,2.474c0.278,0.437,0.858,0.567,1.295,0.289c0.412-0.261,0.553-0.795,0.328-1.227
		l-1.909-3.284c-0.26-0.446-0.829-0.599-1.276-0.344l-3.285,1.877c-0.448,0.259-0.604,0.834-0.344,1.283
		c0.258,0.45,0.834,0.605,1.283,0.345L14.026,13.497z"/>
	<path fill="#093E2E" d="M18.253,47.294c0.26,0.444,0.83,0.598,1.276,0.343l3.284-1.878c0.45-0.259,0.604-0.832,0.345-1.283
		c-0.258-0.448-0.834-0.603-1.284-0.345l-2.465,1.413l-1.441-2.473c-0.278-0.438-0.857-0.566-1.295-0.288
		c-0.411,0.262-0.555,0.793-0.327,1.227L18.253,47.294z"/>
	<path fill="#093E2E" d="M5.619,16.162l-3.283,1.877c-0.449,0.258-0.603,0.833-0.346,1.28c0.002,0.002,0.003,0.003,0.003,0.005
		l1.91,3.284c0.278,0.438,0.857,0.567,1.294,0.288c0.412-0.261,0.554-0.795,0.328-1.227l-1.46-2.452l2.482-1.408
		c0.449-0.259,0.604-0.834,0.344-1.283c-0.259-0.45-0.832-0.605-1.282-0.346L5.619,16.162z"/>
	<path fill="#093E2E" d="M20.119,25.216c-2.556-1.732-6.034-1.063-7.766,1.494c-0.339,0.502-0.595,1.056-0.758,1.64
		c-0.354,1.293-0.175,2.674,0.498,3.834c0.393,0.676,0.942,1.249,1.6,1.674c0.439,0.276,1.018,0.146,1.294-0.291
		c0.273-0.432,0.151-1.003-0.275-1.286c-0.413-0.263-0.753-0.618-1-1.04c-0.42-0.728-0.531-1.593-0.305-2.404
		c0.554-1.974,2.607-3.126,4.581-2.572c0.374,0.104,0.727,0.267,1.049,0.481c0.154,0.11,0.299,0.236,0.431,0.375
		c0.358,0.374,0.953,0.387,1.327,0.027c0.375-0.359,0.388-0.952,0.03-1.328C20.608,25.599,20.374,25.395,20.119,25.216
		L20.119,25.216z"/>
	<path fill="#093E2E" d="M20.182,11.053c0.517,0,0.938-0.42,0.938-0.938c0-0.114-0.019-0.226-0.061-0.333l-1.352-3.546
		c-0.184-0.484-0.725-0.728-1.21-0.544c-0.484,0.184-0.728,0.726-0.544,1.21l1.351,3.542C19.441,10.81,19.791,11.053,20.182,11.053z
		"/>
	<path fill="#093E2E" d="M57.776,52.628c-1.289-2.021-12.642-19.808-14.218-21.35l-0.329-0.324c-1.485-1.463-3.166-3.124-5.44-3.124
		H37.75c-1.608,0-4.896,0.239-6.337,0.347L21.626,2.464c-0.184-0.482-0.722-0.725-1.205-0.544L2.232,8.746
		c-0.484,0.181-0.73,0.722-0.55,1.208c0,0,0.001,0.001,0.001,0.003l0.619,1.627c0.184,0.484,0.727,0.728,1.211,0.544
		c0.484-0.184,0.728-0.727,0.543-1.211l0,0l-0.285-0.746l16.419-6.17L31.45,33.615h-0.037c-0.017-0.126-0.059-0.249-0.123-0.357
		L16.452,7.718c-0.26-0.444-0.828-0.598-1.276-0.342l-16.832,9.664c-0.448,0.258-0.604,0.833-0.345,1.282
		c0.001,0,0.001,0.001,0.003,0.003l19.164,32.892c0.028,0.043,0.06,0.083,0.094,0.121c0.019,0.026,0.039,0.052,0.061,0.076
		c0.033,0.029,0.07,0.059,0.107,0.084c0.059,0.055,0.132,0.094,0.211,0.113c0.104,0.051,0.221,0.075,0.337,0.07
		c0.081-0.002,0.161-0.013,0.239-0.033l0.071-0.029c0.054-0.017,0.106-0.037,0.155-0.065l4.044-2.345
		c-0.283,1.338,0.302,2.71,1.463,3.434c0.694,0.47,6.399,3.485,8.037,3.485c1.018,0,3.016-0.862,4.181-1.406
		c2.009,3.729,5.58,6.364,9.738,7.187h0.136c0.519,0.036,0.969-0.353,1.007-0.87c0.036-0.519-0.354-0.969-0.87-1.007
		c-3.622-0.728-6.723-3.047-8.445-6.314c-0.365-0.741-0.688-1.502-0.966-2.28c-0.666-1.739-1.352-3.537-2.534-4.564
		c-0.623-0.544-2.918-2.346-5.568-4.446l-3.791-3.003c-1.303-1.032-5.269-4.181-6.032-4.931c-0.553-0.474-0.893-1.151-0.938-1.878
		c0.06-0.723,0.395-1.394,0.938-1.875c0.792-0.803,2.026-0.756,3.659,0.132l15.721,8.52c0.136,0.072,0.286,0.111,0.441,0.111
		c0.518,0.014,0.948-0.396,0.961-0.913c0.009-0.354-0.181-0.683-0.492-0.851l-5.133-2.768c-0.009-0.051-0.024-0.103-0.042-0.149
		l-1.834-4.814c1.591-0.112,4.297-0.292,5.653-0.3c1.5,0,2.776,1.257,4.122,2.585l0.334,0.327
		c1.079,1.057,8.913,13.136,13.947,21.018c0.263,0.446,0.837,0.596,1.286,0.332c0.445-0.262,0.595-0.837,0.331-1.282
		c-0.012-0.02-0.024-0.039-0.035-0.058H57.776z M34.49,50.751c0.187,0.47,0.371,0.938,0.544,1.37
		c0.123,0.319,0.239,0.624,0.362,0.937c-1.385,0.644-2.904,1.235-3.411,1.239c-0.901-0.022-5.865-2.435-7.01-3.18
		c-0.65-0.385-0.88-1.211-0.525-1.878c0.169-0.441,0.526-0.786,0.977-0.937c0.627,0.469,1.36,0.937,2.035,1.351
		c0.549,0.343,1.066,0.665,1.352,0.888c0.507,0.397,1.439,0.523,2.419,0.523c1.094-0.011,2.184-0.118,3.257-0.322V50.751z
		 M33.617,49.021c-1.121,0.178-3.194,0.322-3.649,0.065c-0.366-0.287-0.896-0.614-1.511-1.004c-0.614-0.389-1.279-0.804-1.838-1.215
		l2.688-1.549c1.83,1.445,3.285,2.585,3.715,2.984c0.232,0.209,0.434,0.448,0.602,0.713L33.617,49.021z M17.502,29.434
		c-0.907,0.833-1.44,1.997-1.478,3.229c0.052,1.225,0.604,2.373,1.524,3.18c0.577,0.563,2.482,2.125,6.178,5.059l3.796,3l0.206,0.16
		l-9.416,5.409L0.098,18.199l15.205-8.732l13.094,22.476l-5.006-2.712C20.332,27.576,18.516,28.425,17.502,29.434z"/>
</g>
</svg>
