<?xml version="1.0" encoding="utf-8"?>
<!-- Generator: Adobe Illustrator 16.0.0, SVG Export Plug-In . SVG Version: 6.00 Build 0)  -->
<!DOCTYPE svg PUBLIC "-//W3C//DTD SVG 1.1//EN" "http://www.w3.org/Graphics/SVG/1.1/DTD/svg11.dtd">
<svg version="1.1" id="Vrstva_1" xmlns="http://www.w3.org/2000/svg" xmlns:xlink="http://www.w3.org/1999/xlink" x="0px" y="0px"
	 width="81.544px" height="62.5px" viewBox="422.555 259.542 81.544 62.5" enable-background="new 422.555 259.542 81.544 62.5"
	 xml:space="preserve">
<g>
	<path fill="none" stroke="#093E2E" stroke-width="2.5" stroke-linecap="round" stroke-linejoin="round" stroke-miterlimit="10" d="
		M495.294,304.196v11.489c0,2.819-2.285,5.106-5.105,5.106h-61.277c-2.819,0-5.106-2.287-5.106-5.106v-35.744
		c0-2.82,2.287-5.106,5.106-5.106h61.276c2.821,0,5.106,2.286,5.106,5.106v19.148"/>
	<path fill="none" stroke="#093E2E" stroke-width="2.5" stroke-linecap="round" stroke-linejoin="round" stroke-miterlimit="10" d="
		M428.81,269.729c0.81-0.977,1.982-1.655,3.341-1.813l60.866-7.088c2.801-0.327,5.336,1.68,5.663,4.481l4.134,35.504
		c0.327,2.802-1.68,5.337-4.481,5.663l-3.038,0.354"/>
	
		<line fill="none" stroke="#093E2E" stroke-width="2.5" stroke-linecap="round" stroke-linejoin="round" stroke-miterlimit="10" x1="431.465" y1="305.474" x2="441.677" y2="305.474"/>
	
		<line fill="none" stroke="#093E2E" stroke-width="2.5" stroke-linecap="round" stroke-linejoin="round" stroke-miterlimit="10" x1="431.465" y1="311.855" x2="456.996" y2="311.855"/>
	
		<line fill="none" stroke="#093E2E" stroke-width="2.5" stroke-linecap="round" stroke-linejoin="round" stroke-miterlimit="10" x1="446.783" y1="305.474" x2="456.996" y2="305.474"/>
	
		<line fill="none" stroke="#093E2E" stroke-width="2.5" stroke-linecap="round" stroke-linejoin="round" stroke-miterlimit="10" x1="462.104" y1="305.474" x2="472.315" y2="305.474"/>
	
		<line fill="none" stroke="#093E2E" stroke-width="2.5" stroke-linecap="round" stroke-linejoin="round" stroke-miterlimit="10" x1="477.422" y1="305.474" x2="487.634" y2="305.474"/>
	<path fill="none" stroke="#093E2E" stroke-width="2.5" stroke-linecap="round" stroke-linejoin="round" stroke-miterlimit="10" d="
		M441.677,299.09h-7.659c-1.41,0-2.553-1.144-2.553-2.554v-5.105c0-1.41,1.143-2.554,2.553-2.554h7.659
		c1.41,0,2.554,1.144,2.554,2.554v5.105C444.23,297.946,443.087,299.09,441.677,299.09z"/>
	
		<line fill="none" stroke="#093E2E" stroke-width="2.5" stroke-linecap="round" stroke-linejoin="round" stroke-miterlimit="10" x1="436.57" y1="293.983" x2="439.123" y2="293.983"/>
	<path fill="none" stroke="#093E2E" stroke-width="2.5" stroke-linecap="round" stroke-linejoin="round" stroke-miterlimit="10" d="
		M483.725,295.26c0.861-1.73,1.357-3.677,1.357-5.744c0-2.068-0.496-4.015-1.357-5.745"/>
	<path fill="none" stroke="#093E2E" stroke-width="2.5" stroke-linecap="round" stroke-linejoin="round" stroke-miterlimit="10" d="
		M479.146,292.955c0.517-1.038,0.829-2.199,0.829-3.439c0-1.241-0.313-2.401-0.829-3.439"/>
	<path fill="none" stroke="#093E2E" stroke-width="2.5" stroke-linecap="round" stroke-linejoin="round" stroke-miterlimit="10" d="
		M474.586,290.658c0.176-0.345,0.282-0.729,0.282-1.143c0-0.415-0.106-0.799-0.282-1.144"/>
</g>
</svg>
