<svg xmlns="http://www.w3.org/2000/svg" viewBox="0 0 568 456"><g transform="translate(0.000000,456.000000) scale(0.100000,-0.100000)" fill="#0f3d2e" fill-rule="evenodd"><path d="M3948 3763 c-74 -4 -79 -5 -103 -37 -25 -33 -25 -33 -317 -38 -293 -6 -293 -6 -323 -41 -30 -36 -30 -36 -319 -39 -288 -3 -288 -3 -320 -39 -31 -37 -31 -37 -360 -42 -330 -4 -330 -4 -360 -40 -31 -35 -31 -35 -200 -39 -169 -5 -169 -5 -200 -40 -17 -19 -43 -42 -58 -51 -16 -10 -28 -26 -28 -36 0 -61 109 -66 154 -7 25 33 25 33 238 39 213 7 213 7 243 41 30 35 30 35 319 38 288 3 288 3 320 39 31 37 31 37 360 42 330 4 330 4 360 40 31 35 31 35 321 40 290 5 290 5 320 41 30 36 30 36 124 36 93 0 93 0 183 -91 l90 -91 3 -242 c1 -132 6 -283 10 -334 7 -86 10 -94 36 -113 29 -20 29 -20 30 -272 1 -295 9 -429 27 -435 34 -11 54 -40 59 -85 5 -45 4 -49 -36 -85 -33 -30 -41 -44 -41 -72 0 -57 -23 -80 -79 -80 -44 0 -51 4 -75 35 -34 44 -60 45 -88 0 -13 -19 -33 -37 -45 -40 -46 -11 -41 -77 7 -94 18 -6 30 -17 31 -28 0 -10 1 -88 1 -174 1 -156 1 -156 -90 -248 l-90 -91 -1332 0 -1332 0 -89 90 -90 91 0 772 c0 772 0 772 23 789 13 10 29 23 36 28 6 6 12 32 12 58 0 27 5 53 12 60 17 17 2839 17 2856 0 7 -7 12 -33 12 -60 0 -26 6 -52 13 -58 6 -5 23 -18 36 -28 23 -18 23 -18 22 -429 -2 -366 0 -412 14 -427 21 -21 49 -20 70 0 15 15 16 55 11 433 -3 229 -8 450 -12 491 -5 69 -9 77 -42 111 -21 20 -42 43 -49 52 -8 10 -37 17 -85 22 -40 3 -709 5 -1485 3 -1413 -3 -1413 -3 -1456 -48 -24 -25 -51 -50 -59 -57 -25 -18 -30 -230 -26 -1048 l3 -731 105 -104 104 -105 1396 0 1396 0 104 105 105 104 1 202 c1 111 4 207 8 213 4 6 33 11 64 11 60 1 138 13 149 24 4 3 10 32 14 63 7 48 14 62 42 88 19 16 38 43 42 60 10 44 -6 305 -19 316 -6 5 -22 17 -36 28 -24 19 -24 19 -21 215 3 238 -8 464 -23 477 -6 5 -21 17 -34 27 -24 17 -24 17 -25 303 l-2 285 -103 103 c-103 103 -103 103 -230 106 -70 1 -162 0 -204 -2z"/><path d="M3701 2713 c-31 -21 -26 -42 20 -84 37 -34 41 -42 35 -70 -3 -17 -6 -92 -6 -166 0 -134 0 -134 -30 -145 -51 -17 -62 -66 -20 -88 27 -14 49 -2 65 37 9 22 25 37 45 44 18 7 32 20 36 34 3 12 4 109 2 214 -3 175 -5 192 -23 210 -27 25 -97 33 -124 14z"/><path d="M3524 2629 c-3 -6 -8 -90 -9 -186 -2 -184 2 -203 45 -203 45 0 50 21 50 200 0 140 -3 171 -16 184 -18 18 -60 21 -70 5z"/><path d="M3302 2555 c-12 -9 -22 -23 -22 -31 0 -19 105 -124 124 -124 35 0 48 79 21 130 -12 23 -23 30 -44 30 -16 0 -35 2 -43 5 -7 3 -23 -2 -36 -10z"/><path d="M1520 2521 c-17 -22 -40 -43 -50 -46 -31 -10 -42 -75 -38 -220 3 -132 3 -132 67 -196 64 -64 64 -64 290 -64 124 0 238 3 253 7 40 12 48 52 48 232 0 174 -10 231 -40 241 -11 3 -33 24 -50 46 -32 39 -32 39 -240 39 -208 0 -208 0 -240 -39z m461 -140 c16 -20 19 -38 17 -140 -1 -64 -5 -124 -10 -133 -8 -16 -27 -18 -185 -18 -176 0 -176 0 -226 51 -49 50 -49 50 -51 131 -2 113 4 122 89 129 39 4 132 6 208 5 133 -1 140 -2 158 -25z"/><path d="M1698 2309 c-21 -12 -24 -49 -6 -67 8 -8 46 -12 103 -12 96 0 115 8 115 45 0 12 -5 26 -12 33 -15 15 -175 16 -200 1z"/><path d="M1457 1823 c-32 -36 -29 -113 6 -135 7 -4 123 -8 258 -8 280 0 274 -2 274 80 0 82 6 80 -275 80 -222 0 -248 -2 -263 -17z"/><path d="M2099 1823 c-8 -9 -14 -37 -14 -63 0 -82 -6 -80 276 -80 212 0 250 2 263 16 21 20 30 58 22 88 -14 55 -17 56 -285 56 -219 0 -250 -2 -262 -17z"/><path d="M2816 1824 c-33 -32 -33 -96 0 -128 23 -24 425 -24 448 0 21 20 30 58 22 88 -14 54 -21 56 -246 56 -176 0 -211 -2 -224 -16z"/><path d="M3456 1824 c-33 -32 -33 -96 0 -128 13 -14 51 -16 262 -16 136 0 252 4 258 8 37 24 41 97 7 134 -15 16 -37 18 -264 18 -212 0 -250 -2 -263 -16z"/><path d="M1456 1514 c-9 -8 -16 -24 -16 -34 0 -10 7 -26 16 -34 14 -14 80 -16 583 -16 537 0 569 1 584 18 21 23 22 46 1 66 -14 14 -80 16 -584 16 -504 0 -570 -2 -584 -16z"/></g></svg>
