<svg xmlns="http://www.w3.org/2000/svg" viewBox="0 0 425 450" width="48" height="48">
  <g transform="translate(0,450) scale(0.1,-0.1)" fill="#74FB71" stroke="none">
    <path d="M1498 4484 c-448 -80 -810 -304 -1058 -653 -149 -210 -248 -450
-296 -721 -26 -145 -26 -475 0 -620 79 -443 291 -801 631 -1065 167 -130 384
-237 605 -299 145 -40 252 -56 430 -63 404 -15 771 103 1085 349 72 57 225
210 225 226 0 4 -162 167 -360 362 l-360 355 -68 -62 c-233 -210 -509 -303
-802 -270 -302 34 -556 201 -710 466 -82 142 -120 282 -127 471 -10 282 67
497 244 681 195 203 440 319 708 334 195 11 370 -29 530 -121 l90 -52 362
358 362 358 -48 37 c-253 196 -571 340 -882 399 -145 28 -418 36 -561 16z"/>
    <path d="M2690 3370 l0 -1110 -325 0 -325 0 0 -430 0 -430 755 0 755 0 0
1540 0 1540 -430 0 -430 0 0 -1110z"/>
    <path d="M1590 2260 l0 -430 325 0 325 0 0 -430 0 -430 430 0 430 0 0 860
0 860 -755 0 -755 0 0 -430z"/>
  </g>
</svg>
